<?xml version="1.0" standalone="no"?>
<!DOCTYPE svg PUBLIC "-//W3C//DTD SVG 20010904//EN"
 "http://www.w3.org/TR/2001/REC-SVG-20010904/DTD/svg10.dtd">
<svg version="1.0" xmlns="http://www.w3.org/2000/svg"
 width="684.000000pt" height="659.000000pt" viewBox="0 0 684.000000 659.000000"
 preserveAspectRatio="xMidYMid meet">

<g transform="translate(0.000000,659.000000) scale(0.100000,-0.100000)"
fill="#000000" stroke="none">
<path d="M3340 6567 c0 -20 -7 -25 -52 -36 -114 -25 -204 -89 -240 -173 -7
-15 -19 -30 -27 -33 -8 -3 -44 10 -82 30 -124 64 -225 79 -346 50 -130 -31
-224 -101 -272 -202 l-24 -51 -45 24 c-56 30 -171 33 -248 7 -66 -22 -160
-115 -169 -166 -18 -92 33 -169 135 -207 33 -12 60 -26 60 -30 0 -16 -49 -66
-82 -84 l-33 -18 -43 40 c-91 84 -222 121 -303 85 -41 -19 -119 -88 -119 -106
0 -4 -19 -17 -43 -27 -23 -10 -53 -30 -66 -44 -20 -22 -23 -32 -19 -78 3 -29
8 -60 12 -69 6 -14 1 -15 -56 -3 -81 17 -114 17 -218 -1 -76 -13 -88 -18 -115
-49 l-30 -35 -101 2 c-81 1 -105 -2 -127 -16 -36 -23 -35 -64 0 -120 65 -101
65 -103 35 -161 -23 -43 -27 -63 -26 -126 0 -46 7 -87 16 -105 33 -64 32 -71
-11 -83 -56 -17 -101 -62 -101 -101 0 -40 59 -186 98 -242 16 -24 48 -55 71
-69 23 -14 40 -32 38 -40 -1 -8 -33 -31 -71 -51 -40 -20 -87 -54 -110 -80 -49
-55 -136 -216 -136 -253 0 -39 95 -204 151 -261 27 -28 49 -59 49 -68 0 -10
-14 -26 -31 -35 -65 -36 -79 -52 -79 -91 0 -46 27 -74 122 -125 36 -20 68 -42
70 -49 5 -12 -47 -119 -54 -112 -12 12 -7 -190 6 -248 9 -36 13 -73 10 -80 -3
-8 2 -22 11 -31 9 -9 14 -23 11 -31 -3 -9 1 -15 10 -15 12 0 15 -6 10 -24 -6
-23 -4 -24 24 -16 19 5 28 5 25 -1 -4 -5 -13 -9 -21 -9 -8 0 -14 -9 -14 -20 0
-11 7 -20 15 -20 8 0 15 -4 15 -10 0 -5 9 -10 21 -10 11 0 17 -4 14 -10 -9
-14 8 -13 23 2 9 9 12 8 12 -5 0 -19 15 -23 25 -7 3 6 1 10 -4 10 -18 0 -12
16 7 17 14 1 17 -9 19 -70 1 -40 10 -104 21 -144 10 -39 15 -70 10 -67 -4 3
-8 1 -8 -5 0 -5 4 -13 10 -16 5 -3 15 -16 21 -28 12 -21 11 -21 -8 -5 -19 17
-19 17 -15 -12 2 -16 8 -27 13 -24 5 3 9 -4 9 -16 0 -11 6 -20 13 -19 6 1 19
1 27 0 13 -1 13 -3 1 -10 -8 -5 -21 -7 -30 -4 -14 4 -14 3 -1 -5 8 -6 18 -8
23 -5 6 4 8 -15 5 -46 -3 -31 -2 -47 3 -39 5 7 9 23 9 36 0 13 4 20 10 17 6
-3 7 -17 4 -31 -4 -14 -2 -25 5 -25 26 -3 30 -4 38 -13 5 -5 3 -6 -4 -2 -9 5
-13 0 -13 -14 0 -19 36 -43 52 -34 4 3 0 -10 -9 -26 -8 -17 -12 -34 -9 -37 3
-4 6 -1 6 5 0 7 5 12 10 12 6 0 10 -7 10 -15 0 -8 -4 -15 -8 -15 -5 0 -9 -7
-9 -15 0 -17 23 -20 32 -5 8 13 25 13 25 -1 0 -6 -9 -13 -20 -16 -32 -9 -23
-24 13 -21 42 2 69 -12 41 -23 -10 -4 180 -8 424 -8 437 -1 474 -3 493 -34 13
-20 -4 -47 -37 -57 -25 -9 -286 -11 -938 -8 l-903 3 -43 -30 c-53 -37 -106
-107 -121 -160 -12 -44 -15 -767 -3 -910 8 -91 24 -130 84 -198 73 -82 26 -77
699 -77 382 0 602 -4 606 -10 3 -5 3 -25 -1 -45 l-6 -35 -600 0 c-398 0 -597
-3 -593 -10 3 -6 17 -7 31 -4 14 4 24 2 24 -5 0 -6 -5 -11 -11 -11 -6 0 -4 -7
5 -15 16 -17 51 -21 41 -5 -4 6 -11 7 -17 4 -6 -4 -9 -1 -6 7 7 22 30 17 39
-8 6 -17 5 -23 -6 -23 -7 0 -17 -5 -21 -11 -5 -9 1 -10 21 -5 22 6 26 4 22 -8
-4 -11 -1 -13 10 -9 12 5 14 3 8 -7 -5 -8 -4 -11 3 -6 5 3 12 1 14 -6 3 -9 6
-9 12 0 4 7 2 12 -3 12 -6 0 -11 7 -11 15 0 8 5 15 10 15 6 0 10 -4 10 -10 0
-5 8 -10 18 -11 10 0 12 -3 5 -6 -23 -9 -13 -20 17 -19 16 1 30 5 30 11 0 5 5
4 12 -3 16 -16 52 -16 42 0 -5 8 -2 9 11 4 11 -4 22 -1 27 6 7 10 8 10 7 -2
-1 -8 -1 -24 0 -35 2 -17 4 -16 17 7 19 35 48 27 41 -11 l-5 -26 17 21 c16 20
18 20 29 5 10 -15 11 -15 11 2 1 22 6 22 31 -3 24 -24 34 -25 55 -4 15 15 15
14 10 -12 -5 -22 -4 -26 4 -14 9 12 13 13 20 2 6 -10 10 -8 15 10 5 19 8 20
16 8 8 -13 10 -12 10 3 0 9 4 17 10 17 5 0 7 -7 4 -15 -4 -10 0 -13 15 -10 11
2 27 -2 34 -10 10 -9 25 -11 55 -5 23 4 39 4 37 0 -3 -4 4 -10 15 -13 15 -4
20 0 21 16 1 17 2 18 6 4 6 -24 21 -21 26 6 l4 22 2 -22 c0 -13 6 -23 12 -23
5 0 7 -4 4 -10 -3 -5 -1 -10 4 -10 6 0 11 5 11 10 0 13 32 9 42 -5 5 -6 12 -4
18 5 5 8 10 11 10 6 0 -4 11 -1 25 8 24 16 25 15 25 -3 0 -19 29 -24 41 -7 9
11 31 -3 24 -15 -4 -5 -1 -9 4 -9 6 0 11 6 11 13 0 6 9 1 20 -13 21 -26 27
-21 11 9 -7 13 -6 18 4 18 8 0 12 -4 9 -9 -3 -4 -1 -8 5 -8 5 0 12 6 15 13 3
6 4 -1 1 -18 -6 -29 -6 -29 9 -9 10 14 27 21 55 22 22 1 44 3 49 4 5 2 32 -20
60 -47 93 -92 105 -95 362 -108 140 -6 228 -14 232 -21 5 -8 8 -7 8 2 0 19 20
14 21 -5 0 -15 2 -15 7 -3 11 23 69 25 75 3 4 -17 5 -17 6 0 0 9 6 17 12 17 6
0 8 -7 5 -17 -6 -16 -6 -16 12 0 23 21 46 22 38 2 -4 -12 6 -15 59 -15 55 0
65 3 66 18 0 14 2 14 9 -3 7 -17 9 -17 9 -2 1 21 21 23 21 2 0 -21 26 -19 35
3 7 16 8 15 15 -3 7 -17 9 -17 9 -2 1 9 6 17 11 17 6 0 10 -8 11 -17 0 -15 2
-15 9 2 7 17 9 17 9 3 1 -15 11 -18 55 -18 34 0 56 5 59 13 4 9 6 9 6 0 1 -10
29 -13 106 -13 87 0 105 3 105 15 0 9 9 15 21 15 15 0 19 -5 15 -15 -3 -8 -1
-15 4 -15 6 0 10 7 10 15 0 8 9 15 20 15 11 0 20 -7 20 -15 0 -8 4 -15 10 -15
5 0 7 7 4 15 -4 9 0 15 7 16 8 0 71 2 141 3 115 2 127 0 131 -16 5 -17 25 -18
293 -18 224 0 285 3 276 12 -18 18 -15 28 8 28 13 0 20 -7 20 -20 0 -20 7 -20
582 -20 l582 0 -29 30 c-16 17 -36 30 -44 30 -14 0 -14 -2 -1 -11 12 -8 10
-10 -9 -5 -13 3 -32 1 -41 -4 -24 -13 -96 -14 -155 -2 l-50 10 75 0 c71 1 164
17 220 40 23 9 32 5 80 -39 37 -33 64 -49 83 -49 15 0 27 2 27 5 0 3 -19 24
-42 45 -23 22 -36 40 -30 40 7 0 21 -9 32 -20 11 -11 36 -27 57 -35 l38 -16
-22 20 c-12 12 -29 21 -38 21 -9 0 -13 4 -10 10 3 5 1 10 -4 10 -6 0 -11 4
-11 10 0 5 16 8 36 6 19 -1 37 1 40 6 3 4 1 8 -4 8 -6 0 -13 7 -16 15 -3 10 8
6 29 -11 40 -30 54 -26 37 11 -15 32 -15 38 -1 29 7 -4 25 -8 40 -10 22 -3 27
0 23 11 -8 20 6 19 20 -1 7 -9 18 -12 28 -9 13 5 16 16 12 48 l-5 41 56 -79
c67 -93 80 -122 64 -141 -10 -12 10 -14 125 -14 l136 0 12 28 12 27 4 -27 3
-28 244 0 245 0 44 33 c24 17 50 45 57 61 17 40 45 67 104 102 47 28 100 54
110 54 3 0 5 -8 5 -17 1 -15 4 -14 21 6 23 28 34 22 25 -12 -3 -15 -18 -29
-38 -37 -18 -7 -52 -21 -75 -32 -24 -11 -49 -21 -57 -22 -7 -1 -25 -15 -39
-31 -23 -26 -28 -28 -38 -15 -9 13 -10 13 -6 -1 3 -9 0 -22 -6 -28 -11 -11
-19 -41 -11 -41 3 0 37 18 76 40 39 22 104 54 144 71 40 17 91 44 114 60 l40
29 0 1019 c-1 881 -3 1021 -15 1031 -16 13 -17 11 -19 -32 -1 -16 1 -28 5 -28
8 0 -5 -62 -17 -81 -5 -8 -9 -18 -9 -24 0 -5 -4 -24 -8 -42 -6 -23 -13 -30
-24 -26 -13 5 -15 1 -9 -23 5 -23 4 -25 -4 -12 -10 17 -13 17 -35 2 -23 -15
-30 -14 -111 10 -94 28 -116 42 -145 96 -10 19 -18 29 -19 22 0 -21 19 -54 53
-89 l31 -33 -30 0 c-96 0 -157 118 -119 232 25 76 48 103 120 139 60 29 69 31
152 27 87 -4 130 -17 181 -54 l23 -17 -4 154 c-3 139 -6 161 -30 221 -60 151
-59 352 3 536 28 84 30 99 30 241 0 83 -3 151 -8 151 -4 0 -17 -6 -28 -14 -11
-8 -49 -26 -84 -41 -69 -28 -181 -38 -201 -18 -7 7 13 35 67 92 94 99 122 117
197 126 52 6 57 9 57 31 0 22 -4 24 -45 24 -44 0 -45 1 -34 23 7 12 27 39 45
60 37 41 50 101 17 77 -10 -7 -66 -63 -125 -124 -59 -61 -110 -107 -115 -103
-4 5 -10 44 -12 88 -3 71 0 86 25 136 37 77 95 132 176 168 l67 30 1 66 c0 47
-4 67 -12 66 -34 -1 -48 4 -48 18 0 8 -7 15 -15 15 -11 0 -12 -6 -6 -22 9 -25
-2 -68 -19 -68 -6 0 -16 11 -22 25 -6 14 -15 25 -19 25 -13 0 -41 60 -35 76 3
8 20 14 42 14 l37 0 -7 62 -6 62 40 -39 c22 -21 40 -45 40 -52 0 -7 7 -13 15
-13 11 0 15 12 15 50 0 57 -14 94 -49 132 -20 22 -27 25 -39 16 -8 -7 -19 -13
-26 -15 -6 -1 -21 -5 -33 -9 -19 -5 -23 -2 -23 15 0 28 46 75 66 67 9 -3 25 1
37 9 30 21 35 19 51 -17 14 -32 14 -30 15 52 l1 85 -134 3 c-120 3 -137 1
-167 -17 -19 -12 -49 -29 -67 -38 -18 -9 -35 -27 -38 -40 -4 -13 -15 -28 -25
-34 -17 -9 -17 -12 -5 -32 8 -12 17 -37 21 -55 5 -25 3 -33 -11 -39 -17 -6
-44 19 -44 41 0 6 4 5 9 -3 5 -7 14 -12 20 -10 8 3 6 11 -7 24 -10 11 -21 28
-25 38 -3 9 -14 17 -24 17 -15 1 -15 4 6 20 18 15 22 26 17 46 -7 25 -6 26 34
19 27 -5 40 -3 40 4 0 7 16 21 36 33 40 24 36 33 -21 46 -84 18 -155 -25 -180
-112 -22 -72 -19 -106 13 -157 36 -56 52 -69 94 -75 40 -7 102 31 143 86 30
40 28 66 -6 138 -12 24 -19 46 -16 49 12 11 37 -7 57 -39 35 -58 21 -153 -30
-206 -40 -43 -101 -72 -149 -72 -41 0 -70 21 -123 89 -23 30 -29 33 -42 22
-14 -11 -16 -11 -16 5 1 55 31 177 54 223 24 46 35 56 89 82 74 35 81 35 142
8 41 -18 52 -19 96 -9 44 11 56 10 109 -10 46 -17 70 -21 105 -16 44 7 45 8
45 46 l0 38 -31 -15 c-46 -23 -131 -3 -159 37 -20 27 -20 31 -5 60 31 60 98
82 158 52 l37 -20 0 129 c0 71 -3 129 -7 129 -5 0 -66 -18 -138 -40 -410 -126
-691 -173 -815 -135 -48 15 -62 16 -75 5 -13 -10 -15 -9 -15 8 0 49 165 153
310 196 86 26 456 89 623 106 l117 12 0 79 0 79 -28 0 c-39 0 -127 27 -186 57
-103 52 -192 177 -217 306 -24 120 27 274 120 360 58 54 117 84 185 93 25 4
46 10 46 14 0 4 -21 26 -46 50 -25 23 -44 43 -42 45 11 10 100 -30 131 -59 21
-19 37 -32 35 -28 -2 4 -19 37 -38 75 l-34 67 -332 0 -331 0 -13 -42 c-8 -24
-13 -51 -11 -60 1 -9 -7 -19 -18 -23 -23 -7 -111 4 -111 13 0 4 23 30 52 59
51 52 52 53 24 53 -33 0 -106 -48 -136 -89 -23 -34 -57 -48 -73 -32 -7 7 -20
-3 -43 -37 -17 -26 -49 -63 -69 -82 -31 -29 -36 -32 -35 -15 1 11 2 27 1 35
-2 20 -18 -8 -41 -71 -16 -44 -41 -80 -112 -163 l-27 -31 5 75 c14 198 33 263
108 373 l25 37 -69 0 c-39 0 -70 -4 -70 -9 0 -19 -41 -23 -59 -7 -15 14 -58
16 -342 15 -189 -1 -303 -5 -273 -9 62 -9 74 -15 74 -38 0 -31 -135 -76 -150
-51 -7 10 -12 10 -22 1 -8 -6 -24 -9 -36 -5 -12 3 -22 1 -22 -5 0 -5 -8 -12
-17 -16 -10 -3 -24 -9 -31 -12 -8 -4 -21 14 -37 50 -28 62 -30 76 -14 76 5 0
8 -4 5 -8 -9 -15 86 -13 134 2 43 13 38 14 -115 15 -113 1 -165 -3 -173 -11
-9 -9 -15 -9 -24 0 -7 7 -41 12 -82 12 l-69 0 21 -23 c17 -18 22 -36 22 -75 0
-54 -8 -63 -34 -36 -19 19 -82 38 -96 29 -6 -3 -10 1 -10 10 0 9 4 13 10 10 6
-3 7 1 4 9 -3 9 -1 29 4 46 l11 30 -46 0 c-43 0 -45 -1 -39 -25 4 -16 0 -40
-11 -63 -13 -26 -19 -32 -21 -19 -2 9 -8 17 -13 17 -5 0 -14 10 -19 23 -5 13
-9 16 -9 7 -1 -13 -41 -25 -41 -13 0 13 37 57 54 63 14 6 -4 9 -56 9 -83 1
-108 -4 -108 -24 0 -22 -41 -49 -77 -51 -31 -1 -34 1 -30 23 6 30 -9 40 -18
13 -9 -29 -30 -19 -30 13 1 30 -5 33 -23 15 -9 -9 -12 -9 -12 0 0 9 -43 12
-165 12 l-165 0 0 -23z m1997 -34 c34 -23 56 -74 44 -107 -13 -31 -48 -56 -83
-56 -33 0 -94 55 -104 95 -6 24 -2 33 25 57 36 32 79 37 118 11z m1104 -19
c22 -23 23 -27 8 -52 -20 -36 -57 -41 -81 -10 -24 31 -23 54 4 72 31 22 41 20
69 -10z m-2941 -20 c0 -2 -9 0 -20 6 -11 6 -20 13 -20 16 0 2 9 0 20 -6 11 -6
20 -13 20 -16z m1022 -40 c26 -23 42 -43 40 -54 -2 -10 3 -22 9 -26 9 -5 10
-2 6 10 -5 11 -3 15 5 10 6 -4 50 -8 97 -10 l85 -3 43 40 c47 43 60 46 103 24
40 -21 38 -41 -7 -68 -21 -12 -59 -36 -85 -53 -49 -33 -58 -33 -58 -2 0 17 -6
18 -62 12 -35 -3 -65 -6 -68 -6 -29 0 -40 4 -37 13 1 6 -25 21 -57 32 -54 18
-61 18 -85 4 -55 -32 -85 40 -36 88 33 34 55 31 107 -11z m-1105 -88 c67 -34
113 -69 113 -86 0 -25 -95 -69 -161 -75 -9 0 -24 -9 -33 -18 -10 -9 -24 -17
-32 -17 -25 0 -148 67 -173 94 l-25 26 30 31 c16 18 49 45 74 61 38 25 52 29
92 24 25 -3 77 -20 115 -40z m2595 12 c-58 -99 -78 -127 -86 -128 -5 0 -3 7 4
15 20 24 2 31 -23 8 -25 -23 -70 -39 -142 -48 -77 -10 -95 -16 -95 -31 0 -8
-5 -14 -10 -14 -7 0 -7 6 0 20 16 31 173 191 195 201 11 4 55 8 98 8 l79 1
-20 -32z m327 -11 c7 -13 11 -37 9 -53 -3 -25 -9 -30 -43 -37 -42 -9 -55 -15
-93 -38 -21 -12 -25 -12 -37 5 -18 23 -12 34 59 109 59 63 77 66 105 14z
m-1208 2 c9 -18 6 -26 -24 -58 -19 -20 -43 -46 -53 -59 -11 -13 -40 -38 -65
-56 -25 -19 -54 -50 -63 -71 -19 -39 -34 -127 -28 -157 3 -16 5 -16 28 -2 17
12 34 14 61 9 32 -6 35 -5 24 8 -22 27 -31 75 -16 87 8 6 21 33 30 59 15 48
47 91 66 91 5 0 27 11 49 25 52 33 80 32 114 -4 36 -38 47 -108 22 -147 -10
-14 -23 -23 -31 -20 -9 3 -21 -10 -35 -37 -11 -23 -38 -55 -59 -72 -25 -20
-36 -36 -33 -47 7 -27 -25 -68 -52 -68 -12 0 -31 9 -42 21 -27 30 -68 49 -104
49 -22 0 -30 5 -30 18 0 53 -24 100 -78 151 -32 30 -51 51 -44 47 6 -4 12 -3
12 3 0 5 9 13 20 16 25 8 53 60 45 84 -4 13 10 29 55 62 87 64 138 89 181 89
29 0 41 -5 50 -21z m939 -45 c-29 -50 -29 -51 -41 -34 -9 12 -10 10 -6 -7 4
-17 -4 -30 -31 -52 -82 -64 -205 -106 -342 -116 l-85 -7 23 22 c19 18 36 22
101 24 47 1 85 7 94 15 9 7 21 10 26 6 6 -3 28 3 50 15 22 11 50 20 61 20 11
0 23 7 26 15 4 8 12 15 20 15 8 0 14 7 14 15 0 8 7 15 15 15 8 0 15 5 15 12 0
6 7 19 15 28 9 10 17 27 20 39 7 36 16 44 32 28 12 -12 12 -19 -7 -53z m-2220
19 c0 -19 -3 -24 -10 -17 -6 6 -8 18 -4 27 9 24 14 21 14 -10z m-998 -98 c82
-33 101 -51 64 -61 -14 -3 -33 -3 -41 0 -11 4 -14 2 -9 -6 5 -8 -5 -9 -37 -4
-69 12 -131 8 -126 -9 2 -5 20 -10 40 -9 43 1 49 -11 11 -20 -15 -4 -64 -25
-109 -47 -46 -22 -97 -39 -116 -39 -36 0 -135 32 -152 49 -10 10 96 123 147
157 60 38 218 33 328 -11z m1360 -7 c89 -47 141 -105 118 -133 -23 -27 -96
-55 -146 -55 -53 0 -179 31 -196 48 -13 13 20 63 71 109 39 35 31 41 -25 18
-20 -8 -33 -19 -29 -25 3 -5 1 -10 -4 -10 -6 0 -11 5 -11 11 0 6 -7 8 -16 5
-12 -4 -15 -2 -10 9 3 9 0 15 -8 15 -8 0 -16 -6 -19 -12 -2 -7 -7 -11 -10 -8
-11 10 33 51 60 56 15 3 30 7 32 10 15 14 141 -11 193 -38z m-452 -48 c12 -8
11 -10 -7 -10 -12 0 -25 5 -28 10 -8 13 15 13 35 0z m2350 -69 c0 -31 -14 -49
-24 -32 -4 5 -2 12 4 16 17 11 12 35 -7 28 -11 -4 -14 -3 -9 5 14 23 36 13 36
-17z m-3840 -100 c84 -42 104 -60 89 -78 -6 -7 -26 -13 -45 -13 -22 0 -37 -6
-43 -18 -5 -10 -31 -28 -56 -41 -54 -27 -128 -25 -186 4 -69 35 -85 70 -58
129 30 65 186 74 299 17z m1429 9 c250 -36 606 -172 761 -290 l25 -19 -55 -50
-54 -50 -31 20 c-77 51 -239 124 -375 169 -204 67 -255 78 -443 91 -442 32
-810 -47 -1133 -242 l-86 -51 -76 13 c-43 7 -102 12 -132 11 -47 -1 -52 0 -36
11 10 6 33 21 50 32 206 135 362 210 599 289 273 91 645 116 986 66z m918 14
c80 -18 107 -34 128 -73 17 -34 16 -35 -102 -95 -85 -42 -134 -47 -157 -14
-27 38 -20 55 32 74 50 19 122 60 122 70 0 4 -6 1 -13 -5 -8 -6 -17 -8 -20 -5
-9 10 -105 -17 -176 -48 -78 -34 -101 -25 -56 22 29 30 136 90 161 90 7 0 43
-7 81 -16z m796 -65 c-24 -42 -106 -114 -112 -98 -3 11 109 129 124 129 3 0
-2 -14 -12 -31z m321 25 c21 -8 20 -19 -6 -54 -27 -37 -42 -38 -64 -5 -16 24
-16 27 1 45 18 20 41 25 69 14z m544 -54 c86 -62 78 -164 -14 -190 -42 -12
-78 -11 -119 4 -15 6 -12 1 9 -19 24 -22 27 -30 19 -44 -10 -16 -8 -17 32 -8
73 17 154 -12 190 -67 16 -24 16 -27 -5 -63 -28 -49 -66 -77 -105 -77 -19 0
-63 18 -111 45 -63 36 -89 59 -129 112 -27 36 -53 63 -57 59 -7 -7 2 -49 28
-131 6 -21 4 -22 -15 -16 -19 6 -21 3 -21 -36 0 -55 -33 -99 -114 -150 -43
-27 -63 -35 -68 -26 -6 9 -8 9 -8 -1 0 -9 -7 -8 -25 4 -15 10 -25 12 -25 5 0
-6 -9 -11 -21 -11 -18 0 -16 4 13 27 18 15 39 35 46 45 6 9 37 40 68 69 34 33
66 76 84 114 49 105 86 188 110 248 23 59 61 100 115 123 47 21 79 16 123 -16z
m-387 -27 c40 -24 47 -52 19 -75 -27 -22 -44 -23 -64 -2 -19 18 -21 65 -4 82
15 15 14 15 49 -5z m-281 -25 c26 -28 25 -51 -4 -85 -21 -24 -26 -26 -41 -13
-27 22 -37 58 -24 83 22 42 40 46 69 15z m-619 -36 c-6 -2 -21 7 -33 19 l-23
22 33 -19 c18 -10 28 -20 23 -22z m-1548 -131 c52 -55 97 -140 97 -182 0 -36
-23 -97 -72 -193 -23 -45 -46 -97 -52 -117 -9 -29 -11 3 -12 165 0 155 -4 210
-15 240 l-15 39 -14 -47 c-18 -64 -7 -392 14 -451 17 -44 20 -209 7 -285 -5
-25 -9 -43 -11 -40 -1 3 -5 87 -9 188 l-7 182 -64 123 c-60 114 -64 126 -64
187 0 95 64 229 119 250 27 10 42 1 98 -59z m2380 18 c22 -23 27 -39 27 -77 0
-26 -4 -52 -8 -58 -12 -19 -50 -34 -84 -34 -43 0 -86 42 -94 91 -5 30 0 39 37
77 50 50 76 50 122 1z m-938 -13 c0 -53 -28 -71 -56 -37 -24 29 -24 36 2 62
31 31 54 21 54 -25z m-1153 -13 c22 -20 22 -27 2 -47 -20 -21 -58 -20 -80 1
-15 16 -15 18 10 40 32 27 43 28 68 6z m-2018 -17 c31 -13 76 -59 76 -78 0 -5
-11 -20 -25 -33 -33 -34 -108 -35 -142 -3 -33 30 -31 80 3 107 31 25 44 26 88
7z m3813 -16 c26 -17 55 -45 64 -62 16 -30 16 -33 0 -45 -25 -19 -36 -16 -81
22 -33 28 -45 33 -56 24 -11 -9 -14 -8 -14 2 0 11 -2 11 -10 -1 -9 -13 -14 -7
-11 13 2 10 -6 9 -29 -5 -17 -11 -22 -10 -30 2 -14 21 -8 32 30 58 45 30 80
28 137 -8z m-429 -23 c25 -26 8 -64 -36 -76 -54 -16 -102 -14 -108 4 -4 9 6
34 21 56 26 39 29 41 67 36 23 -3 47 -12 56 -20z m-502 -45 c-9 -17 -118 -136
-243 -264 -296 -305 -444 -468 -441 -486 5 -24 51 -52 74 -46 12 3 152 141
310 306 289 300 418 428 432 428 4 0 13 -9 20 -21 14 -22 -4 -43 -382 -444
-83 -87 -158 -166 -166 -175 -8 -9 -43 -46 -77 -82 -71 -74 -80 -107 -38 -134
24 -16 26 -15 73 24 26 22 69 64 96 94 98 107 600 608 610 608 6 0 17 -4 25
-9 11 -7 10 -14 -10 -39 -69 -85 -326 -369 -571 -629 -49 -51 -88 -98 -88
-105 0 -17 31 -48 49 -48 34 0 103 66 397 376 169 178 313 324 320 324 26 0
14 -34 -45 -119 -32 -47 -80 -122 -108 -166 -84 -137 -310 -433 -406 -533
-149 -155 -255 -213 -447 -247 -52 -9 -113 -25 -135 -35 -56 -25 -133 -101
-290 -285 -189 -222 -183 -215 -198 -209 -7 2 -23 -9 -36 -27 -12 -17 -25 -28
-28 -26 -12 12 142 201 241 297 30 29 53 57 50 62 -3 4 2 8 10 8 9 0 15 4 14
9 -2 4 34 45 80 91 73 73 81 85 68 97 -9 7 -14 10 -11 7 7 -11 -15 -45 -25
-39 -6 3 -7 -1 -4 -10 5 -11 2 -14 -10 -9 -12 5 -19 0 -22 -13 -3 -10 -15 -23
-27 -28 -12 -6 -22 -15 -22 -22 0 -7 -14 -22 -31 -35 -84 -62 -221 -200 -267
-268 -28 -41 -71 -95 -96 -119 -25 -24 -37 -38 -26 -31 11 7 44 38 74 69 29
31 48 48 41 38 -7 -9 -29 -49 -49 -88 -40 -78 -204 -279 -372 -454 -58 -60
-125 -139 -149 -175 -24 -36 -62 -83 -84 -105 -58 -57 -83 -87 -160 -195 -91
-129 -200 -254 -264 -306 -49 -40 -59 -44 -110 -44 -59 0 -93 -12 -73 -24 6
-4 24 -6 40 -4 16 1 35 -3 42 -9 42 -35 182 71 294 222 29 40 77 86 83 80 4
-4 -41 -79 -53 -87 -5 -4 -6 -8 -2 -8 33 0 -123 -165 -205 -216 -61 -38 -66
-39 -150 -39 l-87 0 -42 40 c-74 71 -95 152 -67 263 10 44 40 75 447 478 440
434 558 548 686 657 39 33 178 166 311 297 301 296 294 284 305 513 13 267 20
281 278 537 166 166 457 428 605 547 46 37 65 30 42 -15z m-1892 -38 c19 -19
20 -72 2 -96 -26 -35 -74 -14 -90 37 -7 26 2 40 39 59 36 19 30 19 49 0z
m1423 -16 c27 -25 30 -64 7 -96 -26 -37 -73 -22 -93 31 -26 68 35 113 86 65z
m2409 8 c19 -14 19 -15 -5 -40 -14 -14 -28 -26 -33 -26 -14 0 -40 49 -34 65 7
19 46 19 72 1z m-5025 -39 c72 -49 105 -135 74 -194 -10 -18 -23 -33 -29 -33
-10 1 -90 93 -110 128 -10 17 -17 102 -10 114 9 15 40 8 75 -15z m1432 -1
c146 -28 197 -73 295 -258 32 -61 69 -168 57 -168 -1 0 -18 24 -38 53 -42 60
-201 187 -235 187 -39 0 -25 -35 31 -77 70 -54 130 -117 158 -167 20 -38 21
-40 2 -23 -11 9 -22 15 -25 12 -2 -3 -10 6 -18 19 -13 25 -36 38 -97 55 l-32
9 15 -24 c9 -13 20 -21 25 -18 5 3 9 1 9 -5 0 -15 61 -45 88 -44 15 0 21 -4
18 -12 -3 -8 6 -16 20 -19 13 -4 24 -11 24 -16 0 -17 -35 -11 -110 16 -122 46
-210 144 -255 287 -25 79 -41 179 -30 196 8 14 8 14 98 -3z m981 -12 c8 -20
-9 -120 -31 -183 -17 -51 -75 -141 -118 -184 -50 -49 -255 -137 -255 -108 0
21 85 133 154 204 74 75 88 97 65 97 -17 0 -106 -67 -171 -129 -32 -30 -58
-51 -58 -46 0 4 -7 2 -15 -5 -64 -53 83 230 150 288 22 20 62 39 108 53 39 11
77 22 82 24 31 10 83 4 89 -11z m1296 1 c6 -8 9 -23 6 -33 -8 -25 -73 -70
-112 -78 -27 -5 -35 -1 -62 32 -35 42 -30 54 23 54 17 0 46 9 65 19 42 24 64
26 80 6z m-2900 -24 c174 -60 416 -237 535 -391 58 -76 110 -172 130 -244 20
-68 25 -214 11 -323 -8 -68 -7 -75 20 -130 20 -41 63 -94 148 -181 67 -67 122
-126 124 -131 5 -14 -40 -62 -54 -57 -8 3 -11 0 -8 -8 3 -7 -6 -20 -18 -28
-31 -20 -39 -13 -140 112 -92 115 -184 206 -218 214 l-25 7 23 -17 c12 -9 22
-22 22 -28 1 -6 23 -29 51 -51 69 -56 244 -267 232 -279 -13 -13 -25 -2 -129
115 -110 123 -165 170 -232 194 -26 9 -31 14 -17 15 11 2 24 2 29 1 5 -1 6 5
3 14 -4 8 -1 15 6 16 8 0 9 2 1 5 -7 3 -40 -5 -75 -17 -94 -31 -231 -32 -324
0 -172 59 -287 140 -387 275 -79 105 -162 277 -194 402 -22 86 -25 113 -21
209 3 67 12 129 23 160 23 66 96 139 160 159 71 23 238 16 324 -13z m3720 1
c0 -16 -37 -58 -45 -50 -2 2 3 18 10 36 15 35 35 43 35 14z m-413 -28 c-3 -3
-12 -4 -19 -1 -8 3 -5 6 6 6 11 1 17 -2 13 -5z m-81 -16 c19 -6 35 -17 38 -24
3 -8 -9 -6 -37 6 -23 10 -49 20 -57 23 -11 4 -10 6 4 6 11 1 34 -4 52 -11z
m-4216 -108 c19 -10 43 -27 53 -37 17 -20 17 -20 -35 -16 -51 5 -52 4 -31 -12
13 -9 28 -25 34 -36 14 -26 2 -99 -16 -99 -15 0 -40 -64 -30 -79 5 -10 -55
-104 -80 -126 -6 -5 -17 -20 -24 -32 -6 -13 -17 -22 -24 -20 -6 1 -13 -9 -15
-23 -2 -20 -1 -22 7 -10 12 17 14 10 5 -14 -3 -9 -10 -13 -15 -10 -5 3 -12 -1
-14 -9 -14 -34 -224 24 -226 63 0 10 -2 11 -6 3 -2 -7 0 -27 6 -45 10 -30 25
-43 104 -92 26 -16 37 -46 17 -46 -34 0 -111 54 -150 106 -67 89 -93 211 -50
234 20 11 70 4 70 -10 0 -5 9 -6 20 -3 13 4 29 -2 43 -15 19 -18 28 -19 71
-11 27 5 66 17 85 27 46 22 51 57 20 124 l-22 48 31 39 c33 41 32 51 -5 51
-37 0 -81 -27 -98 -60 -22 -42 -39 -39 -32 6 7 43 29 78 61 99 56 37 178 39
246 5z m-370 -24 c6 -18 9 -66 7 -105 -3 -39 -1 -69 3 -66 4 3 10 -1 13 -9 7
-17 -54 -36 -114 -36 l-44 1 43 40 c23 22 42 44 42 48 0 5 -12 14 -27 20 -16
7 -44 25 -63 41 -42 35 -27 38 55 10 32 -11 59 -20 59 -20 1 0 -1 28 -2 61 -4
67 8 73 28 15z m4483 28 c75 -25 207 -160 207 -211 0 -34 -245 7 -314 52 -21
14 -24 14 -30 -1 -10 -25 8 -47 60 -74 41 -21 51 -33 67 -75 86 -232 114 -345
84 -345 -27 0 -93 58 -130 113 -20 30 -49 93 -63 139 -41 131 -44 135 -90 173
-42 35 -44 39 -44 89 0 29 5 68 11 86 22 62 140 89 242 54z m-3741 -170 l-5
-145 -45 -67 c-57 -84 -151 -277 -196 -404 -84 -232 -123 -580 -95 -849 36
-360 142 -652 347 -963 l85 -130 -2 -80 c-1 -56 3 -94 14 -120 27 -65 13 -77
-25 -22 -19 27 -61 81 -93 120 -31 39 -71 88 -88 109 -17 21 -46 62 -63 90
-18 29 -46 74 -63 100 -66 101 -164 354 -209 537 -62 249 -67 296 -67 560 -1
200 3 255 22 365 51 293 109 448 268 718 50 86 212 327 218 327 1 0 -1 -66 -3
-146z m4822 -39 c-4 -8 -15 -15 -25 -15 -10 0 -19 -6 -19 -12 0 -9 -4 -8 -11
2 -8 11 -12 12 -16 3 -2 -7 -13 -13 -24 -13 -10 0 -19 -5 -19 -12 0 -6 -3 -9
-6 -6 -3 4 -18 3 -34 -2 -23 -7 -29 -5 -33 10 -7 26 4 33 20 12 11 -15 12 -15
7 0 -4 13 1 16 25 14 17 -1 31 2 31 7 0 4 5 5 10 2 6 -3 10 -2 10 4 0 6 15 8
34 6 19 -3 38 0 41 5 9 15 15 12 9 -5z m-1393 -82 c60 -89 161 -295 212 -433
78 -210 120 -465 120 -730 1 -322 -42 -552 -166 -880 -47 -127 -157 -308 -277
-457 l-58 -72 -6 57 c-4 31 -14 74 -23 95 -16 37 -16 38 15 80 160 217 287
528 327 807 36 240 29 608 -15 793 -49 213 -162 495 -254 635 l-34 51 45 65
c25 36 49 66 54 66 5 0 32 -35 60 -77z m1183 51 c21 -8 21 -34 0 -34 -8 0 -12
5 -8 11 4 8 -1 9 -16 4 -20 -6 -21 -5 -9 8 17 19 14 18 33 11z m-789 -54 c3
-5 38 -19 78 -31 91 -27 107 -44 107 -117 0 -66 -29 -130 -78 -173 -48 -42
-58 -38 -65 29 -4 31 -20 99 -37 151 -16 52 -30 102 -30 111 0 9 -5 21 -12 28
-9 9 -7 12 9 12 12 0 25 -4 28 -10z m-4304 -163 c-10 -9 -11 -8 -5 6 3 10 9
15 12 12 3 -3 0 -11 -7 -18z m4839 -23 c22 -21 25 -33 25 -88 0 -94 -34 -122
-88 -72 -14 13 -28 22 -31 19 -7 -7 -40 47 -41 69 -1 11 -7 23 -14 28 -18 11
5 46 44 64 37 18 72 11 105 -20z m-2771 -2 c67 -50 10 -132 -92 -132 -45 0
-57 15 -57 72 0 66 26 92 83 85 22 -3 52 -14 66 -25z m272 8 c50 -27 3 -134
-58 -132 -39 1 -88 26 -97 48 -22 57 90 118 155 84z m-2338 -105 c-9 -19 -18
-33 -21 -31 -4 5 26 66 33 66 3 0 -3 -16 -12 -35z m514 -27 c14 -24 50 -79 79
-123 52 -81 74 -136 74 -187 0 -22 6 -29 28 -34 107 -23 179 -85 220 -191 35
-92 32 -94 -47 -55 l-70 34 -33 -20 c-19 -12 -43 -30 -53 -42 -23 -26 -36 -25
-93 5 -57 30 -111 32 -171 5 l-44 -20 5 42 c9 78 54 155 120 206 73 57 73 53
-6 249 -31 76 -56 146 -56 156 0 29 19 19 47 -25z m3181 -233 c-3 -150 -6
-165 -33 -234 -36 -90 -87 -146 -174 -190 -62 -31 -63 -32 -57 -9 4 13 11 37
15 53 5 17 19 53 31 80 55 124 116 335 97 335 -19 0 -82 -147 -123 -285 -25
-88 -54 -177 -62 -198 -15 -37 -69 -93 -80 -83 -3 3 0 38 7 78 6 40 15 126 21
192 14 176 34 214 208 386 l137 135 8 -50 c4 -27 7 -122 5 -210z m1561 147
c-4 -2 -6 -9 -3 -17 10 -24 -13 -25 -24 0 -10 21 -9 25 3 25 8 0 15 8 16 18 0
14 2 14 8 -3 5 -11 5 -21 0 -23z m-5651 -3 c65 -13 106 -50 150 -133 40 -75
73 -105 47 -42 -19 46 -20 96 -1 96 37 0 96 -111 96 -179 0 -46 -68 -66 -133
-38 -63 27 -220 212 -242 285 -8 26 6 28 83 11z m4962 -8 c0 -4 -20 -44 -44
-87 -24 -44 -60 -109 -79 -145 -37 -68 -67 -103 -67 -79 0 10 -3 10 -15 0 -33
-27 -72 50 -60 119 8 51 59 131 82 131 10 0 32 9 48 20 17 11 37 17 46 15 9
-3 23 1 31 8 22 22 58 34 58 18z m560 -35 c0 -3 -4 -8 -10 -11 -5 -3 -10 -1
-10 4 0 6 5 11 10 11 6 0 10 -2 10 -4z m-4726 -52 c24 -24 20 -44 -9 -44 -27
0 -41 20 -31 45 7 19 21 19 40 -1z m1798 -29 c58 -39 65 -60 34 -103 -14 -20
-42 -55 -61 -77 l-35 -40 -70 75 c-38 41 -69 82 -70 91 0 16 31 48 65 67 36
20 97 14 137 -13z m2638 -16 c12 -21 -5 -41 -57 -65 -28 -14 -41 -15 -64 -7
-25 10 -31 9 -40 -9 -6 -11 -9 -47 -6 -79 4 -52 2 -59 -14 -59 -11 0 -20 8
-21 18 -7 83 34 157 120 214 27 18 69 12 82 -13z m-4482 -141 c19 -19 14 -47
-13 -74 -21 -21 -28 -24 -41 -13 -31 26 -35 46 -13 73 22 28 48 33 67 14z
m3540 -20 c25 -25 5 -98 -27 -98 -16 0 -61 42 -61 56 0 46 57 73 88 42z m1150
-9 c72 -25 80 -141 13 -186 -66 -44 -133 -17 -161 64 -13 37 4 79 46 112 30
23 56 26 102 10z m266 -28 c13 -14 14 -21 6 -26 -7 -4 -16 -2 -20 5 -5 8 -19
11 -39 7 -18 -4 -31 -2 -31 3 0 6 5 11 10 11 6 1 14 2 19 3 5 0 13 4 17 9 11
11 19 9 38 -12z m-5474 -70 c0 -6 -4 -13 -10 -16 -5 -3 -10 1 -10 9 0 9 5 16
10 16 6 0 10 -4 10 -9z m-67 -63 c29 -40 61 -108 53 -115 -3 -3 -8 7 -12 21
-5 21 -11 25 -26 20 -15 -4 -18 -3 -13 6 5 9 4 11 -3 6 -7 -4 -12 -34 -12 -73
0 -58 -2 -64 -17 -58 -43 19 -70 17 -97 -7 -27 -23 -27 -24 -9 -40 10 -10 47
-28 81 -41 l62 -23 -18 -34 c-9 -19 -32 -43 -51 -54 -33 -19 -36 -19 -80 -3
-35 12 -47 13 -53 4 -5 -8 0 -14 13 -17 11 -3 21 -9 21 -15 1 -5 11 -17 22
-26 22 -17 52 -18 96 -5 24 7 24 6 6 -8 -11 -9 -16 -16 -10 -16 26 -1 -26 -20
-54 -20 -86 0 -174 68 -226 176 l-38 76 16 43 c21 54 66 125 102 160 42 40
122 74 176 74 42 1 50 -3 71 -31z m4802 1 c36 -17 79 -42 95 -56 37 -30 77
-98 95 -157 12 -39 11 -48 -10 -101 -41 -99 -133 -175 -213 -175 -53 0 -125
47 -154 102 -21 39 -23 56 -22 168 1 115 3 129 27 177 43 83 78 92 182 42z
m725 0 c0 -5 -4 -9 -10 -9 -5 0 -10 7 -10 16 0 8 5 12 10 9 6 -3 10 -10 10
-16z m-1577 -47 c-45 -44 -84 -98 -75 -106 4 -4 0 -6 -8 -4 -8 2 -19 -7 -24
-19 -6 -12 -21 -28 -34 -34 -21 -12 -106 -98 -232 -237 -25 -27 -51 -47 -57
-45 -7 3 -10 10 -7 15 4 6 -3 5 -15 -1 -11 -7 -21 -18 -21 -25 0 -8 -6 -16
-14 -19 -9 -4 -12 -14 -9 -26 4 -15 -5 -31 -30 -56 -19 -19 -32 -35 -29 -35 3
0 -4 -9 -16 -20 -12 -12 -22 -26 -22 -31 0 -6 -7 -8 -16 -5 -8 3 -12 2 -9 -3
3 -6 -8 -31 -25 -57 -16 -26 -30 -55 -30 -63 -1 -13 -3 -12 -12 3 -18 31 -2
134 32 201 39 80 213 264 316 335 105 72 270 195 317 237 46 41 63 36 20 -5z
m-2633 8 c11 -6 88 -17 172 -25 84 -8 167 -19 184 -24 96 -28 169 -89 233
-195 51 -85 59 -106 42 -106 -15 0 -96 36 -137 62 -35 21 -159 76 -206 91 -9
4 -27 -2 -40 -13 -21 -17 -22 -20 -7 -35 15 -16 163 -75 187 -75 6 0 12 -5 12
-11 0 -5 -4 -7 -10 -4 -5 3 -10 2 -10 -3 0 -4 -31 -9 -68 -10 -53 -2 -77 3
-111 20 -25 13 -43 27 -42 31 1 4 -5 15 -14 23 -8 9 -15 22 -15 30 0 9 -11 14
-35 14 -27 0 -38 -5 -43 -21 -7 -18 -13 -12 -41 45 -25 52 -81 198 -81 213 0
6 11 3 30 -7z m2128 -17 c-2 -5 -29 -61 -61 -126 -33 -69 -61 -116 -67 -112
-10 6 -40 -17 -40 -30 0 -13 -57 -54 -94 -66 -21 -7 -40 -18 -43 -25 -4 -10
-14 -10 -50 1 -44 13 -45 13 -27 -6 21 -23 14 -24 -67 -9 -30 5 -66 11 -81 12
-42 3 -34 14 20 27 139 35 313 124 288 148 -8 9 -316 -92 -389 -127 -31 -15
-60 -24 -62 -19 -9 14 68 162 103 196 84 84 186 122 357 133 175 10 217 11
213 3z m-3412 -80 c4 -10 6 -22 5 -26 -1 -5 3 -6 9 -2 5 3 11 14 11 23 2 24
18 -57 18 -93 1 -25 -4 -33 -30 -42 -39 -15 -45 -12 -53 31 -8 39 1 66 20 66
8 0 14 5 14 11 0 5 -4 8 -8 5 -4 -2 -9 6 -10 20 -2 28 12 32 24 7z m1016 0 c0
-10 0 -29 -1 -43 -1 -14 5 -30 15 -37 10 -7 12 -13 6 -13 -10 0 -10 -5 -2 -20
6 -11 8 -25 5 -30 -3 -5 -1 -12 5 -15 6 -4 8 -15 5 -26 -4 -11 -2 -19 5 -19 6
0 9 -4 5 -9 -7 -13 24 -91 37 -91 6 0 8 -7 4 -15 -3 -9 0 -15 9 -15 8 0 15
-12 17 -27 2 -17 8 -27 16 -25 9 2 11 -4 7 -18 -5 -15 -3 -18 9 -14 9 3 16 1
16 -5 0 -6 -4 -11 -10 -11 -12 0 -13 -11 0 -30 8 -13 11 -13 22 -1 8 9 9 11 1
7 -6 -3 -14 -2 -18 4 -3 5 1 10 9 10 20 0 31 -19 17 -33 -6 -6 -11 -15 -11
-21 0 -6 5 -5 12 2 21 21 31 13 14 -12 -10 -15 -12 -27 -6 -31 6 -3 10 0 10 7
0 9 3 9 10 -2 8 -12 10 -12 10 -1 0 8 3 11 7 7 5 -4 -1 -14 -11 -22 -14 -10
-16 -14 -5 -14 12 0 12 -2 -1 -10 -11 -7 -6 -9 18 -6 29 3 33 1 30 -18 -2 -12
-12 -22 -23 -24 l-20 -3 20 16 20 17 -20 -4 c-23 -4 -31 -48 -9 -48 21 0 17
-20 -3 -21 -17 -1 -17 -2 0 -6 9 -2 17 -9 17 -15 0 -5 -6 -8 -14 -5 -8 3 -17
-1 -20 -9 -6 -17 -1 -18 25 -3 12 6 18 17 15 25 -3 8 1 14 10 14 32 0 6 -52
-32 -64 -25 -8 -50 -56 -35 -65 7 -5 6 -19 -3 -44 -7 -20 -16 -34 -19 -30 -4
3 -7 -5 -8 -18 l0 -24 -10 23 c-5 13 -7 28 -3 33 3 5 1 9 -5 9 -15 0 -19 -22
-10 -55 7 -26 7 -28 -5 -12 -16 20 -30 23 -23 4 3 -8 0 -14 -7 -14 -7 0 -11
12 -9 31 3 30 3 30 -7 6 -6 -14 -9 -35 -7 -47 2 -13 0 -23 -4 -23 -5 0 -9 19
-9 42 0 48 -11 45 -13 -4 -2 -29 -5 -33 -27 -30 -14 1 -41 4 -62 6 -20 2 -41
7 -47 10 -6 4 -11 2 -11 -5 0 -7 -7 -4 -15 7 -14 18 -14 18 -8 -3 6 -27 44
-39 158 -48 44 -4 84 -11 89 -15 19 -18 -68 -43 -144 -42 -144 2 -221 33 -324
131 -67 64 -100 122 -115 203 -13 72 -3 134 44 280 31 95 38 131 42 228 6 154
7 156 53 180 58 30 82 26 141 -25 29 -25 55 -45 58 -45 3 0 25 23 49 50 44 51
71 63 74 33z m4397 -30 c32 -48 66 -144 77 -217 4 -23 11 -46 16 -53 5 -7 6
-18 2 -25 -8 -13 -93 -130 -99 -136 -2 -2 -11 24 -21 57 -12 45 -21 61 -34 61
-11 0 -20 -10 -22 -25 -3 -14 -1 -25 3 -25 5 0 9 6 9 13 0 8 4 7 10 -3 12 -19
13 -33 1 -26 -9 6 -21 -49 -21 -101 0 -17 -7 -38 -15 -47 -8 -8 -15 -19 -15
-25 0 -6 -4 -11 -10 -11 -5 0 -33 -25 -62 -56 -50 -53 -159 -140 -203 -161
-11 -6 -33 -13 -50 -17 -29 -6 -29 -6 -10 9 98 75 220 246 230 323 14 111 28
181 47 247 23 78 113 265 127 265 5 0 23 -21 40 -47z m-4907 -60 c40 -36 7
-134 -40 -119 -22 7 -52 52 -52 77 0 18 41 59 58 59 9 0 24 -7 34 -17z m3657
-7 c30 -32 22 -70 -19 -91 -29 -15 -31 -15 -55 9 -31 31 -32 53 -3 83 28 29
49 29 77 -1z m-137 -316 c36 -123 40 -140 28 -140 -5 0 -10 12 -10 27 0 20 -3
24 -11 16 -8 -8 -8 -17 -1 -30 6 -11 9 -28 7 -39 -2 -10 -4 -30 -5 -44 -2 -18
-4 -20 -7 -7 -2 9 -9 15 -14 11 -5 -3 -7 -10 -4 -15 4 -5 2 -9 -3 -9 -19 0
-22 31 -4 38 9 4 18 13 20 20 3 15 -10 16 -26 0 -15 -15 -16 0 -2 36 8 22 7
26 -8 26 -12 0 -14 3 -4 8 9 7 10 16 1 43 -22 64 -28 52 -28 -52 0 -137 -6
-161 -64 -252 -40 -61 -86 -109 -101 -104 -6 2 -18 -6 -28 -17 -12 -15 -17
-17 -18 -7 0 11 -3 11 -13 -3 -7 -9 -19 -18 -27 -20 -8 -1 -24 -7 -36 -14 -16
-8 -24 -8 -32 0 -9 9 -12 9 -12 0 0 -19 -30 -14 -31 6 -1 15 -2 15 -6 -1 -4
-14 -12 -18 -29 -14 -13 2 -32 -1 -41 -8 -15 -11 -13 -14 16 -30 36 -18 103
-15 186 7 22 7 43 11 46 10 4 -1 28 19 53 43 25 25 49 45 53 45 9 0 55 55 71
86 17 32 42 107 42 127 0 9 7 17 16 17 12 0 14 -4 7 -12 -5 -7 -18 -40 -29
-73 -10 -33 -23 -63 -28 -66 -11 -9 0 -39 14 -39 5 0 10 5 10 11 0 5 -6 7 -12
3 -7 -4 -5 2 5 13 9 11 17 29 17 40 0 27 40 123 51 123 5 0 9 -4 9 -10 0 -5 6
-7 14 -4 35 13 -30 -158 -83 -218 -42 -48 -177 -134 -232 -148 -24 -6 -80 -10
-123 -8 l-79 3 -34 45 c-48 65 -83 140 -83 179 0 35 23 63 126 151 112 97 327
370 380 483 l18 38 27 -93 c14 -51 38 -131 51 -178z m-810 128 c-7 -7 -10 -5
-7 8 5 29 6 30 12 16 3 -8 1 -18 -5 -24z m-1697 -22 c20 -15 20 -15 -1 -10
-11 3 -34 17 -50 30 l-29 25 30 -15 c17 -8 39 -21 50 -30z m1412 -286 c621
-592 832 -801 854 -847 43 -90 35 -169 -22 -217 -27 -23 -34 -24 -126 -19
-111 6 -110 6 -260 135 -170 146 -276 262 -448 488 -27 36 -86 108 -130 160
-45 52 -107 129 -138 170 -31 41 -88 113 -127 160 -38 47 -70 90 -70 96 0 6
14 29 32 52 31 40 33 41 52 24 20 -17 20 -17 5 8 -15 23 -15 26 14 62 26 33
32 36 48 24 10 -7 153 -140 316 -296z m253 280 c0 -8 -37 -22 -87 -33 -13 -3
-23 -1 -23 4 0 5 9 9 19 9 11 0 22 9 26 19 4 12 12 18 21 14 7 -3 14 0 14 7 0
10 3 10 15 0 8 -7 15 -16 15 -20z m-1615 -20 c3 -5 2 -10 -4 -10 -5 0 -13 5
-16 10 -3 6 -2 10 4 10 5 0 13 -4 16 -10z m1425 -1 c0 -4 -9 -7 -19 -6 -11 0
-18 4 -16 7 6 9 35 8 35 -1z m473 -44 c-3 -9 -8 -14 -10 -11 -3 3 -2 9 2 15 9
16 15 13 8 -4z m-1903 -77 c21 -23 26 -54 11 -76 -14 -22 -64 -10 -80 19 -13
24 -13 29 2 53 21 32 40 33 67 4z m-300 8 c0 -3 -4 -8 -10 -11 -5 -3 -10 -1
-10 4 0 6 5 11 10 11 6 0 10 -2 10 -4z m-1222 -40 c27 -40 46 -99 57 -175 7
-52 7 -53 -16 -46 -35 11 -88 48 -135 92 -80 75 -97 127 -46 139 15 3 41 10
57 14 50 14 59 11 83 -24z m4602 19 c23 -8 55 -15 71 -15 34 0 36 -13 10 -57
-17 -26 -46 -52 -136 -121 -5 -4 -23 -17 -39 -30 -15 -12 -32 -19 -37 -16 -27
16 2 167 43 227 22 31 30 32 88 12z m-1520 -9 c15 -19 9 -56 -11 -69 -9 -5
-28 -7 -42 -3 -31 7 -46 48 -27 71 16 19 64 19 80 1z m2235 5 c3 -5 1 -12 -5
-16 -5 -3 -10 1 -10 9 0 18 6 21 15 7z m-3135 -66 c-16 -31 -60 -93 -98 -138
-38 -45 -77 -95 -87 -110 -12 -19 -21 -24 -25 -17 -5 9 -9 9 -14 1 -4 -6 -5
-15 -2 -20 3 -5 -1 -14 -9 -21 -13 -11 -15 -9 -12 8 3 23 25 53 103 146 27 34
76 94 107 134 32 39 59 72 61 72 2 0 -9 -25 -24 -55z m285 -80 c77 -92 293
-359 377 -465 79 -101 117 -146 213 -250 33 -36 71 -78 85 -94 23 -26 23 -28
4 -18 -29 15 -194 191 -194 208 0 7 -24 33 -54 59 -30 25 -97 103 -149 173
-53 70 -143 183 -202 252 -116 136 -165 205 -164 229 0 11 5 9 17 -9 9 -14 40
-52 67 -85z m3209 82 c-10 -27 -82 -47 -216 -60 -71 -7 -128 -10 -128 -7 0 17
76 40 148 46 46 4 109 15 140 24 32 10 58 17 60 15 1 -1 0 -9 -4 -18z m-1645
-72 c0 -5 -4 -3 -9 5 -5 8 -9 22 -9 30 0 16 17 -16 18 -35z m-2789 -23 c0 -13
-12 -22 -22 -16 -10 6 -1 24 13 24 5 0 9 -4 9 -8z m4321 -82 c39 -39 36 -69
-10 -92 -37 -19 -56 -14 -98 25 -30 27 -29 51 3 76 37 29 70 26 105 -9z
m-3237 -63 c42 -88 58 -136 48 -152 -6 -11 -12 -7 -27 15 -28 41 -35 37 -23
-12 14 -66 12 -149 -5 -190 -9 -21 -20 -38 -25 -38 -15 0 -40 98 -47 183 -7
80 -14 90 -47 60 -30 -27 -21 -3 32 87 28 47 50 91 50 97 0 28 16 9 44 -50z
m-2437 -35 c38 -127 38 -128 11 -135 -12 -4 -33 -7 -45 -7 -20 0 -21 -2 -11
-25 10 -21 18 -25 57 -25 43 0 48 -3 65 -35 11 -19 25 -35 31 -35 7 0 18 -7
25 -15 9 -11 7 -19 -12 -38 -12 -14 -31 -34 -40 -46 -25 -29 -49 -26 -100 12
-92 69 -124 206 -78 331 22 57 58 111 68 101 3 -3 16 -40 29 -83z m1338 54
c-10 -14 -26 -26 -36 -26 -24 0 -24 12 1 35 15 14 20 15 20 4 1 -10 4 -8 11 4
6 10 13 16 16 14 2 -3 -3 -17 -12 -31z m75 19 c0 -8 -4 -15 -10 -15 -5 0 -7 7
-4 15 4 8 8 15 10 15 2 0 4 -7 4 -15z m0 -35 c0 -5 -2 -10 -4 -10 -3 0 -8 5
-11 10 -3 6 -1 10 4 10 6 0 11 -4 11 -10z m-1304 -31 c69 -43 112 -87 139
-139 28 -56 59 -159 50 -168 -12 -12 -98 43 -139 90 -41 48 -138 227 -129 241
8 13 29 7 79 -24z m1226 -11 c-8 -8 -9 -4 -5 13 4 13 8 18 11 10 2 -7 -1 -18
-6 -23z m4034 24 c6 -4 16 -17 22 -29 20 -37 -7 -53 -75 -46 -64 6 -99 27 -73
43 8 5 27 10 41 10 14 0 34 7 45 15 22 17 25 17 40 7z m-706 -42 c0 -83 -180
-313 -216 -277 -8 7 25 127 46 166 27 53 124 139 158 140 7 1 12 -11 12 -29z
m-696 11 c3 -5 -2 -15 -12 -22 -15 -12 -16 -12 -5 2 7 9 10 19 6 22 -3 4 -4 7
0 7 3 0 8 -4 11 -9z m-2662 -23 c-7 -7 -12 -8 -12 -2 0 14 12 26 19 19 2 -3
-1 -11 -7 -17z m39 5 c-5 -10 -17 -27 -26 -38 -16 -19 -17 -19 -3 5 26 46 29
50 34 50 3 0 0 -8 -5 -17z m686 -13 c-4 -28 -15 -35 -12 -8 3 27 3 28 10 28 3
0 4 -9 2 -20z m-754 -63 c3 -8 -1 -14 -8 -14 -7 0 -11 6 -8 14 3 7 6 13 8 13
2 0 5 -6 8 -13z m977 -30 c0 -7 -9 -29 -20 -50 -27 -50 -29 -190 -3 -215 9 -9
19 -17 23 -17 3 0 21 -16 41 -35 19 -19 60 -47 92 -63 32 -15 68 -43 84 -63
27 -36 125 -114 180 -145 47 -26 67 -80 60 -164 -8 -88 -24 -127 -82 -198
-108 -133 -233 -171 -366 -111 -103 46 -162 142 -176 285 -7 75 14 120 113
238 69 83 79 99 79 134 0 32 -6 45 -31 66 -32 27 -45 50 -50 90 -2 13 -9 28
-15 32 -8 5 -13 32 -13 73 0 36 -3 66 -6 66 -10 0 -36 -66 -50 -125 -7 -27
-18 -67 -26 -87 -8 -22 -13 -71 -12 -120 1 -69 -2 -90 -22 -126 -29 -54 -41
-41 -39 43 1 33 -3 80 -9 105 -24 98 -9 187 42 255 28 36 106 99 161 128 37
20 45 21 45 4z m3361 3 c32 -18 51 -64 38 -97 -26 -70 -68 -81 -116 -30 -45
48 -47 62 -12 102 32 36 56 43 90 25z m-2999 -29 c27 -11 72 -48 119 -98 60
-63 82 -95 107 -155 18 -42 32 -87 32 -100 0 -25 -17 -48 -35 -48 -11 0 -14
88 -3 105 7 11 -37 104 -64 135 -10 11 -18 23 -18 27 0 10 -42 53 -52 53 -8 0
18 -57 32 -70 34 -32 47 -109 21 -118 -18 -6 -13 -20 19 -54 37 -38 39 -77 6
-115 -31 -35 -33 -34 -121 112 -50 81 -69 124 -76 165 -19 124 -25 180 -18
180 4 0 27 -8 51 -19z m-758 -52 c-8 -14 -24 -10 -24 6 0 9 6 12 15 9 8 -4 12
-10 9 -15z m2760 -26 c-17 -41 -31 -60 -38 -52 -5 5 42 89 49 89 2 0 -3 -17
-11 -37z m452 -138 c-18 -92 -28 -267 -15 -259 12 7 12 15 -12 -144 -11 -75
-29 -157 -40 -181 -10 -24 -19 -52 -19 -63 0 -40 -61 -165 -105 -215 -25 -28
-45 -54 -45 -57 0 -3 178 -6 396 -6 254 0 411 -4 439 -11 31 -8 61 -28 103
-68 75 -72 87 -108 78 -241 -4 -52 -7 -307 -7 -567 l0 -471 -31 -47 c-34 -52
-115 -116 -167 -134 -25 -8 -195 -11 -605 -9 -314 1 -606 2 -648 3 l-78 0 0
42 0 43 658 0 c635 0 658 1 689 20 18 11 45 37 60 58 l28 38 -2 565 c-1 310
-2 567 -3 571 0 5 -17 26 -37 49 -71 78 18 72 -1084 70 -542 -1 -1002 1 -1023
4 -46 9 -48 33 -4 70 l31 26 583 -2 c468 -2 587 1 599 11 9 7 26 36 39 64 30
65 130 364 161 478 l23 87 -29 45 c-16 24 -49 60 -73 80 -45 37 -88 108 -79
131 2 8 18 17 33 20 27 6 65 41 103 95 9 13 25 24 35 25 11 0 28 10 38 20 19
18 19 18 22 -21 2 -21 -3 -75 -12 -119z m219 109 c-9 -15 -12 -23 -6 -20 6 4
20 4 31 1 17 -5 20 -13 16 -51 -3 -29 -11 -51 -23 -59 -10 -8 -15 -15 -11 -15
4 0 3 -12 -2 -26 -7 -16 -7 -23 0 -19 6 3 10 2 10 -4 0 -5 -5 -13 -10 -16 -6
-4 -8 -10 -5 -14 5 -9 -77 -66 -145 -101 -30 -15 -45 -19 -48 -11 -3 9 -7 9
-18 0 -11 -9 -14 -8 -14 4 0 9 4 18 9 22 11 6 94 176 106 215 10 32 61 107 77
113 7 3 21 6 32 6 17 1 18 0 1 -25z m-3545 -81 c-72 -92 -158 -183 -173 -183
-10 0 25 44 70 86 13 12 20 23 18 26 -7 6 124 148 136 148 5 0 -18 -35 -51
-77z m2185 52 c30 -29 31 -35 4 -69 -16 -21 -28 -26 -53 -24 -56 5 -73 88 -23
108 35 14 46 12 72 -15z m-2993 -2 c27 -24 24 -81 -4 -92 -60 -22 -113 45 -71
91 20 22 51 23 75 1z m882 -55 c-23 -46 -79 -113 -115 -139 -28 -20 -30 -20
-21 -3 12 22 141 174 148 174 2 0 -3 -15 -12 -32z m-2016 -33 c-3 -3 -9 2 -12
12 -6 14 -5 15 5 6 7 -7 10 -15 7 -18z m555 -42 c36 -18 77 -81 93 -144 12
-44 11 -55 -2 -80 -17 -34 -16 -34 -54 -14 -45 23 -76 72 -101 158 -24 84 -34
88 -41 17 -6 -61 18 -135 69 -210 12 -19 23 -40 23 -46 0 -15 -83 -44 -126
-44 -43 0 -76 40 -98 119 -41 147 41 280 163 264 25 -3 58 -12 74 -20z m4179
-7 c38 -34 58 -78 58 -130 0 -59 -7 -75 -31 -69 -10 3 -19 0 -19 -6 0 -6 -16
-11 -35 -11 -21 0 -35 -5 -36 -12 0 -7 -6 9 -14 37 -8 30 -10 56 -4 66 4 9 8
29 7 45 -1 16 2 38 7 49 5 14 5 17 -2 10 -6 -5 -21 -41 -33 -79 -25 -78 -62
-123 -108 -132 -28 -6 -32 -3 -38 20 -18 72 32 186 96 218 51 26 119 23 152
-6z m786 -21 c-3 -3 -9 2 -12 12 -6 14 -5 15 5 6 7 -7 10 -15 7 -18z m309 -6
c98 -37 117 -151 35 -219 -47 -39 -92 -40 -140 -4 -80 62 -74 182 11 219 39
17 58 18 94 4z m-787 -180 c59 -47 96 -115 85 -158 -3 -14 -9 -37 -11 -51 -5
-22 -11 -25 -43 -25 -20 0 -52 9 -70 20 -55 32 -73 65 -78 142 -9 122 27 143
117 72z m516 -23 c19 -19 34 -40 34 -48 0 -21 -59 -107 -85 -124 -13 -8 -41
-16 -63 -17 -25 -1 -38 -5 -34 -12 3 -5 -2 -4 -11 4 -15 12 -17 11 -17 -3 0
-14 -9 -16 -45 -15 -56 3 -57 13 -12 99 35 69 82 113 143 135 53 19 52 19 90
-19z m-3471 -23 c42 -41 74 -104 75 -146 0 -58 -31 -106 -107 -165 -84 -65
-122 -30 -149 139 -17 101 -10 141 29 176 50 46 102 45 152 -4z m1437 8 c24
-16 66 -53 93 -82 57 -59 159 -129 187 -129 11 0 29 -5 41 -12 21 -11 21 -11
2 -19 -44 -17 -82 -9 -141 29 -51 33 -174 157 -174 176 0 3 -15 20 -32 36 -42
38 -31 38 24 1z m-258 -2 c33 -26 33 -39 1 -39 -36 0 -71 -19 -86 -46 -17 -32
-9 -37 29 -18 33 16 72 11 72 -9 0 -7 -11 -30 -25 -52 -24 -39 -32 -75 -17
-75 14 1 42 27 35 34 -4 4 -3 10 2 14 6 4 15 21 20 37 7 20 17 30 30 30 50 0
-7 -191 -64 -215 -31 -13 -58 -5 -121 35 -93 59 -131 187 -75 253 31 37 100
72 141 72 17 0 43 -9 58 -21z m-2466 -141 c-2 -57 -10 -114 -16 -128 -39 -82
-79 -145 -91 -145 -8 0 -23 13 -35 28 -17 24 -21 43 -21 110 0 97 13 134 60
165 18 13 41 35 50 48 8 13 25 24 36 24 20 0 21 -4 17 -102z m3639 42 c4 0 19
-16 32 -35 13 -19 35 -46 49 -60 42 -43 41 -165 -2 -165 -18 0 -56 46 -96 114
-24 44 -32 71 -36 128 l-5 73 25 -27 c14 -16 29 -28 33 -28z m-2630 -132 c33
-27 -5 -94 -56 -100 -32 -4 -66 41 -57 77 11 42 75 55 113 23z m1655 5 c22
-20 23 -56 2 -77 -21 -21 -33 -20 -61 6 -29 27 -29 51 0 71 29 20 37 21 59 0z
m1368 -38 c0 -19 -4 -37 -10 -40 -5 -3 -10 -1 -10 4 0 6 -7 11 -15 11 -8 0
-15 7 -15 15 0 9 7 18 15 21 8 4 15 13 15 21 0 8 5 11 10 8 6 -3 10 -21 10
-40z m190 2 c27 -1 40 -13 40 -38 0 -13 -8 -15 -45 -9 -42 6 -85 32 -85 52 0
5 15 6 33 3 17 -3 43 -7 57 -8z m-265 -43 c1 -27 -10 -32 -19 -9 -3 8 -1 15 4
15 5 0 7 8 3 18 -4 10 -2 14 3 9 5 -5 9 -20 9 -33z m695 16 c23 -14 1 -42 -46
-58 -51 -17 -214 -29 -214 -15 0 17 24 31 70 42 25 6 63 17 85 25 47 17 84 19
105 6z m-1665 -60 c28 0 67 5 88 11 22 6 41 9 43 6 7 -7 -98 -111 -146 -143
-131 -90 -335 -180 -606 -270 -224 -73 -307 -86 -549 -86 -116 0 -249 6 -295
12 -194 27 -453 101 -623 179 -234 108 -527 291 -464 291 8 0 34 -7 58 -16 49
-17 112 -13 157 10 27 14 31 13 89 -27 234 -164 703 -297 1042 -297 134 0 372
31 506 66 98 25 291 97 370 137 49 24 211 133 219 146 4 6 17 4 34 -5 15 -7
50 -14 77 -14z m506 9 c47 -16 69 -38 69 -67 0 -28 -15 -42 -82 -77 -105 -55
-205 -4 -168 86 27 64 97 86 181 58z m-3282 -41 c23 -23 39 -48 36 -56 -2 -7
0 -10 5 -7 16 10 12 -15 -5 -32 -37 -36 -123 -37 -182 -1 -41 25 -46 73 -10
105 52 48 102 45 156 -9z m1169 -9 c37 -13 45 -31 30 -64 -11 -25 -60 -46 -85
-38 -16 6 -34 60 -26 79 3 9 15 20 27 24 12 5 21 9 22 9 1 1 15 -4 32 -10z
m880 -17 c15 -19 15 -33 2 -66 -8 -22 -16 -26 -48 -26 -32 0 -41 5 -50 25 -10
21 -9 32 3 55 8 15 20 30 27 33 19 8 51 -3 66 -21z m1786 -76 c22 -45 15 -65
-28 -79 -37 -12 -56 7 -63 63 -7 47 5 62 47 58 18 -2 30 -14 44 -42z m604 -2
c28 -31 28 -39 0 -58 -32 -23 -58 -20 -128 13 l-62 30 43 19 c83 37 111 36
147 -4z m617 -54 c3 -5 -4 -20 -16 -32 -20 -21 -21 -21 -14 -3 4 11 8 26 8 33
0 14 13 16 22 2z m-4170 -358 c3 -11 6 -185 7 -387 l3 -368 27 -20 c34 -25 36
-54 6 -66 -13 -4 -60 -11 -105 -14 l-83 -6 0 34 0 35 -49 -33 c-59 -41 -118
-53 -164 -34 -51 22 -133 103 -161 159 -22 43 -26 66 -26 132 0 68 5 89 28
134 30 58 101 136 146 159 37 19 148 19 188 -1 27 -14 29 -14 24 0 -3 9 -9 54
-13 101 -6 82 -8 86 -36 102 -103 56 -88 74 71 82 64 3 120 6 124 7 4 1 9 -6
13 -16z m1740 -157 l-2 -166 21 16 c71 52 160 69 215 41 41 -22 107 -98 121
-141 10 -29 11 -80 6 -197 l-7 -159 31 -17 c23 -13 30 -23 28 -42 l-3 -25
-142 -3 c-120 -2 -143 0 -143 12 0 8 10 22 22 30 26 19 36 78 37 222 1 126 -5
157 -37 189 -31 31 -89 34 -123 6 -23 -19 -24 -24 -27 -195 l-3 -176 30 -26
c32 -26 41 -59 19 -66 -7 -2 -73 -2 -145 0 -146 4 -163 13 -98 51 19 11 35 24
35 28 5 82 6 540 2 602 -5 80 -6 84 -33 94 -16 6 -29 20 -32 33 -4 21 1 24 42
29 25 3 69 10 96 14 102 17 92 33 90 -154z m-1439 104 c12 -12 28 -35 35 -51
12 -29 11 -33 -19 -59 -43 -38 -98 -40 -141 -4 -54 46 -50 87 12 126 38 23 80
19 113 -12z m-2021 -1 c-4 -13 -9 -62 -12 -110 -5 -82 -7 -88 -27 -88 -12 0
-39 18 -61 40 -44 45 -85 60 -165 60 -103 0 -100 3 -100 -119 0 -116 6 -131
51 -131 66 0 87 11 108 56 43 90 63 45 53 -117 -6 -115 -9 -124 -27 -124 -11
0 -25 11 -32 26 -19 38 -32 46 -97 53 l-58 6 3 -126 c4 -139 0 -131 88 -187
69 -44 58 -47 -158 -46 -164 1 -201 3 -201 15 0 7 18 23 39 34 22 11 43 30 47
42 4 13 7 158 6 322 l-1 299 -48 49 c-26 26 -43 48 -38 49 6 1 134 1 285 0
151 -1 288 3 305 8 45 14 48 13 40 -11z m2985 -3 c41 -14 84 -18 140 -13 28 3
27 6 16 -97 -14 -127 -17 -145 -26 -145 -4 0 -31 28 -58 63 -58 74 -99 97
-174 97 -56 -1 -77 -11 -96 -47 -30 -56 8 -108 116 -158 162 -77 205 -101 242
-142 56 -60 67 -106 45 -188 -15 -56 -25 -72 -71 -114 -103 -94 -198 -119
-309 -83 -111 37 -150 53 -157 65 -4 7 -10 35 -14 64 -5 42 -2 61 15 97 21 43
44 62 62 51 5 -4 16 -30 24 -60 26 -88 106 -141 199 -132 69 6 96 38 96 112 0
61 -30 108 -77 120 -45 11 -185 76 -230 106 -29 20 -51 48 -72 91 -51 101 -39
171 43 252 70 70 189 95 286 61z m1328 -222 c36 -17 62 -38 80 -66 26 -39 27
-45 32 -226 l5 -186 30 0 c26 -1 30 -4 30 -29 0 -40 -41 -68 -108 -74 -50 -4
-56 -2 -86 29 -27 27 -36 31 -50 21 -88 -63 -170 -70 -244 -21 -63 41 -87 83
-87 149 0 47 4 56 38 90 44 44 121 75 222 89 80 11 93 21 85 65 -9 48 -32 74
-76 86 -50 14 -82 4 -149 -45 -41 -30 -53 -34 -70 -25 -26 14 -26 59 0 93 68
86 226 108 348 50z m-4027 11 c44 -13 66 -29 121 -86 78 -80 93 -117 86 -223
-8 -112 -63 -192 -172 -249 -62 -33 -157 -36 -214 -7 -54 28 -138 106 -168
156 -32 56 -46 137 -32 193 16 65 99 150 190 196 82 40 110 43 189 20z m672
-20 c101 -52 133 -79 162 -139 27 -59 33 -130 14 -184 -15 -42 -72 -137 -101
-169 -38 -40 -117 -74 -184 -80 -57 -4 -65 -2 -105 26 -61 43 -186 171 -198
205 -15 40 -14 122 3 161 31 75 82 129 163 173 103 56 147 58 246 7z m3805 -9
l-3 -44 30 28 c76 71 127 80 176 32 37 -38 39 -82 4 -116 -30 -31 -67 -32
-104 -4 -35 25 -61 15 -91 -34 -17 -28 -20 -51 -20 -174 l0 -141 28 -22 c15
-11 38 -29 51 -39 46 -34 20 -41 -150 -41 -155 0 -159 1 -159 21 0 12 15 35
33 51 l32 31 4 188 3 189 -25 9 c-28 11 -47 39 -47 69 0 18 9 21 88 27 48 3
92 8 97 10 6 2 21 4 34 4 21 1 23 -2 19 -44z m584 33 c51 -15 136 -91 159
-143 25 -54 24 -87 -4 -113 -42 -40 -96 -54 -219 -60 l-117 -5 15 -35 c20 -49
42 -71 89 -93 71 -33 187 -20 224 24 40 49 37 -12 -4 -75 -38 -57 -103 -90
-191 -96 -65 -4 -80 -1 -128 22 -94 46 -174 158 -184 256 -9 100 47 212 138
275 75 52 146 66 222 43z m-2865 -19 c57 -27 109 -96 124 -163 13 -60 3 -91
-35 -106 -31 -12 -252 -33 -276 -27 -15 4 -20 0 -20 -16 0 -40 38 -87 87 -109
46 -20 72 -21 186 -2 52 9 49 -11 -13 -80 -59 -63 -100 -81 -172 -73 -90 11
-188 89 -229 183 -25 56 -35 157 -20 211 29 107 157 203 269 203 36 0 71 -7
99 -21z m-440 -236 l-5 -248 25 -27 c15 -15 23 -33 20 -42 -5 -13 -26 -14
-134 -9 -70 3 -130 7 -132 9 -2 2 5 15 15 30 43 60 44 65 44 246 l0 177 -30
21 c-31 22 -39 53 -17 67 16 10 89 20 161 22 l59 1 -6 -247z m-567 -647 c0
-22 -6 -26 -46 -32 -34 -5 -44 -10 -42 -23 2 -11 16 -17 41 -19 29 -3 37 -7
37 -23 0 -16 -7 -19 -40 -19 -34 0 -40 -3 -40 -21 0 -18 5 -20 43 -17 36 2 42
0 45 -19 3 -19 -2 -21 -58 -25 -34 -1 -64 -1 -66 1 -2 2 -4 51 -4 107 l0 103
63 4 c34 2 63 4 65 5 1 1 2 -9 2 -22z m228 8 c12 -8 22 -24 22 -36 0 -21 -8
-21 -65 -3 -45 14 -81 -56 -55 -106 13 -23 56 -25 80 -4 15 14 19 14 31 -1 12
-14 10 -19 -16 -40 -41 -32 -67 -30 -109 10 -27 25 -36 42 -36 65 0 44 25 88
63 111 39 24 56 25 85 4z m152 -98 l5 -107 -25 3 c-24 3 -25 5 -24 84 1 94 10
137 27 131 8 -2 14 -39 17 -111z m452 79 c-4 -23 -9 -25 -54 -25 -42 0 -49 -3
-46 -17 2 -13 16 -19 48 -23 32 -4 46 -10 48 -22 3 -14 -6 -17 -45 -20 -35 -2
-48 -7 -48 -18 0 -11 12 -15 45 -16 41 0 45 -3 48 -27 3 -26 3 -26 -62 -24
l-66 2 0 92 c0 50 -3 98 -6 107 -5 12 6 16 63 18 37 2 71 2 74 1 4 -2 4 -14 1
-28z m304 12 c38 -33 25 -50 -32 -41 -61 9 -56 -9 9 -33 59 -23 68 -43 43 -92
-20 -38 -41 -44 -95 -28 -48 14 -59 31 -21 35 51 6 70 13 70 27 0 7 -9 16 -19
20 -32 10 -71 45 -71 65 0 20 54 70 75 70 8 0 26 -11 41 -23z m528 -94 c21
-51 35 -97 31 -103 -11 -18 -31 -11 -43 15 -9 20 -19 25 -50 25 -32 0 -41 -5
-50 -25 -11 -25 -42 -26 -42 -1 0 12 68 169 84 194 13 21 28 0 70 -105z
m-1915 81 c36 -30 39 -54 11 -79 -26 -23 -25 -31 5 -67 31 -37 32 -48 3 -48
-15 1 -33 15 -51 41 -23 33 -31 38 -42 29 -8 -7 -15 -23 -15 -36 0 -17 -6 -24
-20 -24 -19 0 -20 7 -20 99 0 109 -1 107 67 110 21 1 42 -8 62 -25z m855 0
c50 -51 21 -114 -54 -114 l-40 0 0 -41 c0 -33 -3 -40 -17 -37 -15 3 -19 19
-23 111 l-5 107 56 0 c47 0 60 -4 83 -26z m694 -16 l-3 -43 43 -3 42 -3 0 45
c0 42 2 46 25 46 l25 0 0 -105 0 -105 -25 0 c-22 0 -25 4 -25 40 l0 40 -40 0
-40 0 0 -40 c0 -33 -3 -40 -20 -40 -19 0 -20 7 -20 105 0 100 1 105 21 105 18
0 20 -5 17 -42z m565 31 c42 -11 77 -41 77 -64 0 -8 -10 -25 -22 -37 l-21 -21
21 -38 c27 -46 27 -49 2 -49 -12 0 -29 14 -42 35 -37 56 -67 54 -68 -3 0 -17
-5 -23 -17 -20 -15 3 -18 17 -21 97 -3 116 4 124 91 100z m366 -44 c32 -30 61
-55 64 -55 4 0 7 25 7 55 0 47 3 55 19 55 17 0 19 -8 17 -102 -1 -69 -5 -103
-13 -105 -7 -3 -36 21 -64 51 -29 31 -56 56 -62 56 -6 0 -7 -19 -4 -49 5 -44
3 -51 -13 -56 -11 -4 -23 -4 -27 -2 -12 7 -3 207 8 207 6 0 36 -25 68 -55z
m329 39 c38 -26 28 -45 -18 -38 -47 8 -80 -14 -80 -53 0 -26 32 -63 55 -63 24
0 30 29 9 45 -26 19 -6 37 37 33 36 -3 46 -20 35 -63 -9 -37 -34 -55 -74 -55
-44 0 -76 20 -97 60 -23 45 -18 69 24 111 42 42 72 49 109 23z m-3173 -32 c30
-46 67 -150 55 -157 -5 -3 -19 8 -31 24 -37 50 -69 50 -95 0 -20 -40 -34 -36
-34 9 0 23 9 51 25 74 14 21 30 49 35 63 5 14 12 25 15 25 2 0 16 -17 30 -38z
m2670 26 c2 -7 6 -52 8 -100 5 -87 5 -88 -19 -88 -24 0 -24 1 -24 100 0 83 3
100 15 100 9 0 17 -6 20 -12z m-3913 -210 c-7 -7 -12 -8 -12 -2 0 14 12 26 19
19 2 -3 -1 -11 -7 -17z m133 12 c3 -5 1 -10 -4 -10 -6 0 -11 5 -11 10 0 6 2
10 4 10 3 0 8 -4 11 -10z m5895 3 c-8 -4 -21 -12 -28 -20 -7 -7 -25 -14 -40
-14 -28 -2 -40 -3 -132 -14 -31 -4 -66 -2 -80 3 -22 9 -22 11 -5 12 l20 1 -20
8 c-14 6 -2 10 45 15 141 14 265 18 240 9z m-5790 -43 c0 -5 -4 -10 -10 -10
-5 0 -10 5 -10 10 0 6 5 10 10 10 6 0 10 -4 10 -10z m5505 -92 c66 -22 124
-45 129 -49 4 -4 -3 -14 -17 -23 -21 -14 -34 -15 -98 -5 -78 12 -201 57 -193
71 3 4 0 8 -6 8 -6 0 -8 5 -5 10 3 6 15 10 26 10 11 0 17 5 14 10 -12 19 30
10 150 -32z m-975 16 c0 -8 -6 -11 -15 -8 -8 4 -15 9 -15 13 0 4 7 8 15 8 8 0
15 -6 15 -13z m1025 -124 c-3 -5 -11 -10 -16 -10 -6 0 -7 5 -4 10 3 6 11 10
16 10 6 0 7 -4 4 -10z"/>
<path d="M2638 6168 c5 -5 16 -8 23 -6 8 3 3 7 -10 11 -17 4 -21 3 -13 -5z"/>
<path d="M6120 5630 c0 -46 4 -49 25 -16 17 25 11 56 -11 56 -10 0 -14 -12
-14 -40z"/>
<path d="M5370 5650 c0 -5 5 -10 11 -10 5 0 7 5 4 10 -3 6 -8 10 -11 10 -2 0
-4 -4 -4 -10z"/>
<path d="M4582 4763 c-18 -20 -32 -39 -33 -42 0 -3 -18 -21 -41 -39 -34 -27
-37 -32 -17 -29 13 2 22 6 20 8 -3 2 23 32 56 66 34 35 58 65 54 67 -4 3 -21
-12 -39 -31z"/>
<path d="M4470 4630 c0 -5 -6 -10 -14 -10 -7 0 -20 -8 -27 -17 -10 -11 -10
-14 -1 -9 16 10 15 -2 -2 -20 -17 -17 -30 -19 -20 -3 4 7 1 10 -7 7 -8 -3 -12
-14 -11 -24 2 -10 1 -16 -3 -12 -13 12 -34 -16 -23 -29 8 -10 5 -13 -10 -13
-15 0 -20 -5 -16 -15 4 -8 11 -15 17 -15 6 0 8 3 5 6 -3 3 16 27 43 54 27 27
49 54 49 60 0 5 3 10 8 10 4 0 13 9 20 20 7 12 8 20 2 20 -5 0 -10 -4 -10 -10z"/>
<path d="M4303 4462 c0 -15 2 -21 4 -14 3 6 9 10 14 6 14 -8 11 6 -5 21 -11
12 -13 10 -13 -13z"/>
<path d="M4275 4460 c-3 -5 -3 -14 0 -20 3 -5 1 -10 -4 -10 -6 0 -11 -4 -11
-10 0 -5 7 -7 15 -4 8 3 14 17 13 30 -3 27 -4 28 -13 14z"/>
<path d="M4241 4404 c0 -11 3 -14 6 -6 3 7 2 16 -1 19 -3 4 -6 -2 -5 -13z"/>
<path d="M4200 4391 c0 -6 4 -13 10 -16 6 -3 7 1 4 9 -7 18 -14 21 -14 7z"/>
<path d="M4167 4375 c-4 -8 -2 -17 3 -20 6 -4 10 3 10 14 0 25 -6 27 -13 6z"/>
<path d="M4110 4350 c0 -19 3 -21 12 -12 9 9 9 15 0 24 -9 9 -12 7 -12 -12z"/>
<path d="M4060 4330 c0 -22 1 -23 24 -14 9 3 16 14 16 23 -1 13 -3 13 -17 -4
-13 -16 -15 -17 -10 -2 4 9 2 17 -3 17 -6 0 -10 -9 -10 -20z"/>
<path d="M4000 4320 c0 -5 -10 -10 -22 -10 -23 0 -71 -6 -75 -10 -2 -2 -6 -3
-10 -5 -11 -3 -47 -17 -57 -23 -5 -3 -6 1 -2 9 4 8 -2 3 -15 -11 -12 -14 -25
-24 -28 -23 -4 1 -8 -7 -8 -18 -2 -24 17 -25 24 0 3 13 24 24 66 36 34 9 73
21 87 25 14 4 33 6 43 4 9 -1 17 2 17 7 0 4 7 6 15 3 10 -4 15 0 14 12 0 11
-3 14 -6 7 -3 -9 -10 -10 -24 -3 -13 7 -19 7 -19 0z"/>
<path d="M3371 3742 c-17 -31 -13 -40 5 -14 9 13 14 26 11 29 -3 2 -10 -4 -16
-15z"/>
<path d="M3750 5213 c0 -5 -24 -21 -53 -37 -66 -37 -143 -99 -128 -104 15 -5
117 59 164 102 38 36 44 46 27 46 -5 0 -10 -3 -10 -7z"/>
<path d="M2103 5443 c-12 -2 -27 -11 -33 -19 -14 -16 -6 -18 63 -15 89 3 271
-74 403 -172 93 -69 185 -167 237 -255 62 -102 78 -149 84 -238 15 -207 -115
-327 -340 -312 -80 5 -186 55 -267 126 -153 133 -340 478 -340 625 0 16 -4 26
-10 22 -15 -9 -12 -141 5 -214 32 -133 152 -343 260 -454 96 -98 264 -176 380
-177 124 0 254 53 312 129 39 51 73 155 73 225 0 202 -152 427 -402 597 -145
99 -319 153 -425 132z"/>
<path d="M2226 5352 c-4 -7 6 -17 28 -26 50 -21 173 -102 221 -145 22 -20 56
-49 75 -66 93 -80 178 -219 196 -320 1 -5 3 -12 4 -15 5 -12 7 -86 1 -95 -10
-18 -10 -35 1 -35 5 0 -4 -18 -21 -39 -17 -21 -31 -44 -31 -49 0 -6 -5 -14
-12 -18 -7 -5 -9 -2 -4 7 4 8 -1 3 -12 -10 -11 -13 -24 -21 -31 -17 -6 4 -11
1 -11 -6 0 -9 -3 -9 -10 2 -8 12 -10 12 -10 1 0 -11 -5 -9 -22 5 -12 10 -18
13 -14 7 4 -7 3 -13 -3 -13 -5 0 -12 6 -14 13 -4 7 -6 6 -6 -5 -1 -9 5 -19 12
-21 8 -4 7 -6 -4 -6 -8 -1 -20 4 -27 11 -9 9 -12 9 -12 -2 0 -13 -2 -13 -10 0
-5 8 -10 11 -10 6 0 -5 -7 -3 -15 4 -9 8 -15 9 -15 2 0 -15 -26 -9 -83 19 -46
23 -59 42 -34 52 9 4 9 6 0 6 -7 1 -17 -8 -23 -18 -8 -16 -5 -23 23 -39 69
-43 111 -55 187 -55 117 0 201 48 247 142 23 49 23 169 0 238 -37 105 -195
288 -321 370 -96 63 -174 103 -201 103 -13 0 -25 5 -27 12 -3 9 -6 9 -12 0z"/>
<path d="M1973 5095 c0 -8 4 -12 9 -9 5 3 6 10 3 15 -9 13 -12 11 -12 -6z"/>
<path d="M2045 4910 c-3 -6 1 -7 9 -4 18 7 21 14 7 14 -6 0 -13 -4 -16 -10z"/>
<path d="M2100 4811 c0 -6 4 -13 10 -16 6 -3 7 1 4 9 -7 18 -14 21 -14 7z"/>
<path d="M2176 4705 c45 -57 61 -72 71 -63 7 6 13 16 13 22 0 6 -4 5 -9 -3 -8
-12 -12 -13 -25 -2 -13 11 -14 16 -4 29 11 13 10 14 -10 8 -17 -6 -21 -4 -16
8 3 9 11 16 17 16 6 0 7 3 4 6 -4 4 -13 1 -21 -5 -10 -8 -16 -9 -21 -1 -3 5
-1 10 4 10 6 0 11 5 11 11 0 8 -4 8 -13 0 -11 -8 -17 -5 -27 14 -7 14 -17 25
-22 25 -5 0 17 -34 48 -75z"/>
<path d="M2255 4629 c-11 -17 1 -21 15 -4 8 9 8 15 2 15 -6 0 -14 -5 -17 -11z"/>
<path d="M2295 4610 c-4 -6 -11 -8 -16 -5 -16 11 -9 -7 9 -21 21 -16 32 -17
32 -4 0 6 -7 10 -16 10 -14 0 -14 3 -4 15 7 8 10 15 7 15 -3 0 -9 -5 -12 -10z"/>
<path d="M2401 4564 c0 -11 3 -14 6 -6 3 7 2 16 -1 19 -3 4 -6 -2 -5 -13z"/>
<path d="M2828 4293 c6 -2 18 -2 25 0 6 3 1 5 -13 5 -14 0 -19 -2 -12 -5z"/>
<path d="M5701 3977 c-33 -41 22 -75 71 -43 13 8 41 18 63 22 34 6 36 8 18 15
-12 4 -48 11 -80 14 -47 6 -61 4 -72 -8z"/>
<path d="M4340 3585 c0 -8 5 -15 10 -15 6 0 10 7 10 15 0 8 -4 15 -10 15 -5 0
-10 -7 -10 -15z"/>
<path d="M2769 3931 c11 -7 11 -9 0 -14 -10 -4 -9 -6 4 -6 9 -1 17 -5 17 -9 0
-5 6 -9 14 -9 12 0 12 4 -1 24 -8 13 -23 23 -32 23 -13 0 -13 -2 -2 -9z"/>
<path d="M1885 3130 c10 -11 20 -20 23 -20 3 0 -3 9 -13 20 -10 11 -20 20 -23
20 -3 0 3 -9 13 -20z"/>
<path d="M6375 3740 c-3 -6 1 -7 9 -4 18 7 21 14 7 14 -6 0 -13 -4 -16 -10z"/>
<path d="M5060 3360 c0 -5 5 -10 11 -10 5 0 7 5 4 10 -3 6 -8 10 -11 10 -2 0
-4 -4 -4 -10z"/>
<path d="M5050 3331 c0 -5 5 -13 10 -16 6 -3 10 -2 10 4 0 5 -4 13 -10 16 -5
3 -10 2 -10 -4z"/>
<path d="M4957 3213 c-2 -4 -1 -17 4 -28 4 -11 8 -14 8 -7 1 8 6 10 14 6 7 -5
7 -1 -3 12 -8 10 -15 20 -16 22 -1 2 -4 0 -7 -5z"/>
<path d="M3510 3573 c0 -9 3 -13 7 -10 3 4 13 1 21 -6 13 -10 15 -9 9 6 -4 10
-7 21 -7 23 0 2 -7 4 -15 4 -8 0 -15 -7 -15 -17z"/>
<path d="M2260 3289 c0 -5 5 -7 10 -4 6 3 10 8 10 11 0 2 -4 4 -10 4 -5 0 -10
-5 -10 -11z"/>
<path d="M3554 2456 c5 -19 3 -32 -6 -38 -11 -6 -11 -10 0 -16 17 -12 16 -62
-3 -127 -9 -30 -71 -105 -88 -105 -5 0 -22 -9 -37 -20 -41 -29 -82 -35 -119
-16 -17 9 -43 21 -58 26 l-28 10 27 -22 c58 -50 73 -58 114 -58 63 0 153 69
190 145 8 17 23 45 34 63 11 17 15 32 10 32 -6 0 -8 11 -4 26 4 14 1 45 -6 67
-16 50 -36 76 -26 33z"/>
<path d="M3294 2389 c-7 -12 50 -69 69 -69 10 0 12 9 8 38 -6 33 -9 37 -39 39
-17 1 -34 -3 -38 -8z"/>
<path d="M3496 2313 c-6 -14 -5 -15 5 -6 7 7 10 15 7 18 -3 3 -9 -2 -12 -12z"/>
<path d="M3429 2252 c-13 -10 -33 -22 -43 -26 -10 -3 -16 -9 -12 -13 8 -8 74
28 80 44 7 17 3 16 -25 -5z"/>
<path d="M3700 2882 c6 -13 14 -21 18 -18 3 4 -2 14 -12 24 -18 16 -18 16 -6
-6z"/>
<path d="M6193 2833 c-16 -3 -23 -11 -23 -26 1 -20 2 -20 11 -4 6 9 14 15 19
12 4 -3 10 2 14 10 3 8 4 14 3 14 -1 -1 -12 -4 -24 -6z"/>
<path d="M1191 2592 c-12 -24 -20 -46 -18 -48 7 -8 48 67 44 80 -2 6 -14 -9
-26 -32z"/>
<path d="M6220 2540 c-9 -6 -10 -10 -3 -10 6 0 15 5 18 10 8 12 4 12 -15 0z"/>
<path d="M6180 2410 c0 -11 5 -20 10 -20 6 0 10 9 10 20 0 11 -4 20 -10 20 -5
0 -10 -9 -10 -20z"/>
<path d="M2707 2502 c-23 -26 -21 -33 7 -26 33 8 66 -29 66 -75 1 -34 2 -35
15 -17 15 20 20 91 9 120 -9 23 -76 21 -97 -2z"/>
<path d="M5555 2290 c-3 -5 -1 -10 4 -10 6 0 11 5 11 10 0 6 -2 10 -4 10 -3 0
-8 -4 -11 -10z"/>
<path d="M2337 1299 c-33 -19 -49 -69 -49 -149 0 -101 16 -156 57 -197 43 -43
85 -45 126 -4 26 26 29 37 31 98 3 101 -2 195 -13 215 -21 40 -110 62 -152 37z"/>
<path d="M5106 1079 c-70 -17 -90 -46 -71 -103 16 -47 29 -56 75 -56 53 1 72
21 81 86 12 87 4 94 -85 73z"/>
<path d="M1059 1291 c-39 -31 -52 -71 -47 -153 7 -137 63 -208 164 -208 79 0
89 17 89 149 0 84 -4 114 -19 144 -37 75 -134 110 -187 68z"/>
<path d="M1681 1284 c-27 -35 -35 -81 -28 -173 9 -141 51 -201 138 -201 66 0
94 15 115 63 28 60 27 209 -1 257 -26 44 -94 79 -157 80 -39 0 -50 -4 -67 -26z"/>
<path d="M6175 1313 c-44 -11 -85 -73 -85 -128 0 -25 1 -25 74 -25 105 0 126
10 126 58 0 38 -34 92 -59 92 -5 0 -15 2 -23 4 -7 2 -22 1 -33 -1z"/>
<path d="M3253 1310 c-29 -12 -53 -60 -53 -104 0 -43 15 -49 110 -44 72 3 78
10 65 75 -12 66 -64 96 -122 73z"/>
<path d="M3996 414 c-7 -18 0 -34 15 -34 12 0 12 37 0 44 -5 3 -12 -1 -15 -10z"/>
<path d="M2083 463 c-16 -6 -17 -39 -2 -48 19 -12 59 4 59 24 0 25 -27 37 -57
24z"/>
<path d="M2920 440 c0 -27 3 -30 29 -30 40 0 49 19 21 42 -33 27 -50 23 -50
-12z"/>
<path d="M4220 439 c0 -28 2 -30 32 -27 57 5 48 57 -9 58 -19 0 -23 -5 -23
-31z"/>
<path d="M1750 412 c0 -12 19 -26 26 -19 2 2 -2 10 -11 17 -9 8 -15 8 -15 2z"/>
<path d="M6820 6581 c0 -6 5 -13 10 -16 6 -3 10 1 10 9 0 9 -4 16 -10 16 -5 0
-10 -4 -10 -9z"/>
<path d="M4670 6540 c-13 -8 -12 -10 3 -10 9 0 17 5 17 10 0 12 -1 12 -20 0z"/>
<path d="M6654 6353 c-42 -52 -45 -60 -29 -60 8 0 12 4 9 8 -8 14 40 6 59 -9
19 -17 23 -52 7 -68 -19 -19 -49 -86 -44 -99 3 -8 21 -12 49 -11 23 0 41 4 38
9 -2 4 0 7 6 7 5 0 13 -5 16 -10 5 -8 11 -7 21 1 11 9 12 14 4 19 -7 4 2 10
19 13 29 6 31 9 31 52 0 42 -2 45 -19 35 -27 -14 -31 4 -15 60 18 60 19 59
-21 76 -61 25 -98 19 -131 -23z m60 -49 c3 -8 2 -12 -4 -9 -6 3 -10 10 -10 16
0 14 7 11 14 -7z"/>
<path d="M6660 6285 c-8 -9 -8 -15 -2 -15 12 0 26 19 19 26 -2 2 -10 -2 -17
-11z"/>
<path d="M6692 6260 c0 -14 2 -19 5 -12 2 6 2 18 0 25 -3 6 -5 1 -5 -13z"/>
<path d="M6501 6015 c1 -19 18 -51 18 -35 0 8 -4 22 -9 30 -5 8 -9 11 -9 5z"/>
<path d="M6516 5951 c-9 -14 5 -42 16 -35 7 4 8 -5 3 -25 -4 -17 -3 -31 2 -31
8 0 9 16 5 78 -2 22 -16 30 -26 13z"/>
<path d="M6555 5830 c9 -30 32 -56 41 -47 4 3 -6 21 -21 39 -25 30 -27 31 -20
8z"/>
<path d="M6620 5763 c0 -5 14 -17 31 -27 18 -11 27 -21 21 -25 -6 -4 17 -17
51 -30 34 -13 70 -27 79 -32 32 -17 39 -10 36 34 -3 40 -5 42 -43 50 -96 19
-141 29 -157 34 -10 2 -18 1 -18 -4z"/>
<path d="M6749 4979 c-14 -26 -8 -32 25 -23 31 7 33 15 6 31 -17 11 -21 10
-31 -8z"/>
<path d="M675 3350 c3 -5 8 -10 11 -10 2 0 4 5 4 10 0 6 -5 10 -11 10 -5 0 -7
-4 -4 -10z"/>
<path d="M628 3333 c6 -2 18 -2 25 0 6 3 1 5 -13 5 -14 0 -19 -2 -12 -5z"/>
<path d="M730 3330 c0 -5 5 -10 11 -10 5 0 7 5 4 10 -3 6 -8 10 -11 10 -2 0
-4 -4 -4 -10z"/>
<path d="M745 2780 c3 -5 10 -10 16 -10 5 0 9 5 9 10 0 6 -7 10 -16 10 -8 0
-12 -4 -9 -10z"/>
<path d="M6549 2231 c-16 -16 -29 -38 -29 -49 0 -24 31 -52 58 -52 21 0 47 32
36 43 -3 3 -3 15 1 26 6 20 7 20 33 -4 28 -26 52 -19 52 15 0 42 -10 50 -67
50 -47 0 -59 -4 -84 -29z"/>
<path d="M1095 2100 c3 -5 8 -10 11 -10 2 0 4 5 4 10 0 6 -5 10 -11 10 -5 0
-7 -4 -4 -10z"/>
<path d="M571 251 c-8 -5 -21 -7 -30 -4 -10 3 -12 1 -6 -4 6 -4 13 -12 16 -16
3 -4 16 2 29 13 23 20 17 27 -9 11z"/>
<path d="M898 193 c7 -3 16 -2 19 1 4 3 -2 6 -13 5 -11 0 -14 -3 -6 -6z"/>
<path d="M1484 162 c7 -12 55 -22 61 -12 2 4 -1 7 -8 7 -7 0 -23 3 -36 7 -15
5 -21 4 -17 -2z"/>
<path d="M1435 150 c3 -5 10 -10 16 -10 5 0 9 5 9 10 0 6 -7 10 -16 10 -8 0
-12 -4 -9 -10z"/>
<path d="M6736 64 c-37 -14 -82 -34 -100 -45 l-31 -19 75 0 c96 0 160 26 160
65 0 32 -14 32 -104 -1z"/>
<path d="M5440 25 c0 -21 5 -25 30 -25 37 0 40 22 5 38 -35 16 -35 16 -35 -13z"/>
<path d="M5090 30 c0 -5 5 -10 11 -10 5 0 7 5 4 10 -3 6 -8 10 -11 10 -2 0 -4
-4 -4 -10z"/>
<path d="M3111 14 c0 -11 3 -14 6 -6 3 7 2 16 -1 19 -3 4 -6 -2 -5 -13z"/>
<path d="M5115 10 c-3 -5 1 -10 10 -10 9 0 13 5 10 10 -3 6 -8 10 -10 10 -2 0
-7 -4 -10 -10z"/>
</g>
</svg>
