<svg width="18" height="13" fill="none" version="1.1" viewBox="0 0 18 13" xmlns="http://www.w3.org/2000/svg">
  <path d="m10.301 0.017578c-3.0674-0.10475-6.3045 0.28727-8.332 0.73242-0.77123 0.19672-1.3911 0.77397-1.5977 1.5215-0.37185 1.3377-0.37109 4.1191-0.37109 4.1191s-7.5625e-4 2.7932 0.37109 4.1309c0.20658 0.7344 0.8126 1.3117 1.5977 1.5215 1.4048 0.3541 7.0234 0.35352 7.0234 0.35352s5.6324 5.85e-4 7.0234-0.35352c0.7712-0.1967 1.3774-0.77398 1.5977-1.5215 0.3719-1.3377 0.37305-4.1172 0.37305-4.1172s0.012553-2.7951-0.37305-4.1328c-1.348-1.5475-4.2451-2.1492-7.3125-2.2539zm-3.1016 3.8008 4.6699 2.5703-4.6699 2.5703v-5.1406z" fill="#ffffff"/>
</svg>
